<svg width="24" height="24" viewBox="0 0 24 24" fill="none" xmlns="http://www.w3.org/2000/svg">
<path d="M14 2H6C5.46957 2 4.96086 2.21071 4.58579 2.58579C4.21071 2.96086 4 3.46957 4 4V20C4 20.5304 4.21071 21.0391 4.58579 21.4142C4.96086 21.7893 5.46957 22 6 22H18C18.5304 22 19.0391 21.7893 19.4142 21.4142C19.7893 21.0391 20 20.5304 20 20V7.5L14 2Z" stroke="#2B2B2B" stroke-width="1.5" stroke-linecap="round" stroke-linejoin="round"/>
<path d="M14 2V7.5H20" stroke="#2B2B2B" stroke-width="1.5" stroke-linecap="round" stroke-linejoin="round"/>
<path fill-rule="evenodd" clip-rule="evenodd" d="M11.4 13.823L13.2215 12.7605L11.4 11.6979V13.823ZM10 11.0015V14.5194C10 15.2912 10.8372 15.7721 11.5039 15.3832L14.5192 13.6242C15.1807 13.2384 15.1807 12.2826 14.5192 11.8967L11.5039 10.1377C10.8372 9.74884 10 10.2297 10 11.0015Z" fill="#2B2B2B"/>
<path d="M6.5 2V22" stroke="#2B2B2B" stroke-width="1.5" stroke-linecap="square" stroke-dasharray="2 3"/>
<path fill-rule="evenodd" clip-rule="evenodd" d="M16.7 7V8V8.75H18.2V8V7H16.7ZM18.2 11V10.25H16.7V11V13V13.75H18.2V13V11ZM18.2 16V15.25H16.7V16V18V18.75H18.2V18V16ZM18.2 21V20.25H16.7V21V22V22.75H18.2V22V21Z" fill="#2B2B2B"/>
</svg>
