<svg width="24" height="24" viewBox="0 0 24 24" fill="none" xmlns="http://www.w3.org/2000/svg">
<path d="M16.5 22H5C4.46957 22 3.96086 21.7893 3.58579 21.4142C3.21071 21.0391 3 20.5304 3 20V4C3 3.46957 3.21071 2.96086 3.58579 2.58579C3.96086 2.21071 4.46957 2 5 2H13L19 7.5V9.5" stroke="#2B2B2B" stroke-width="1.5" stroke-linecap="round" stroke-linejoin="round"/>
<path d="M13 2V7.5H19" stroke="#2B2B2B" stroke-width="1.5" stroke-linecap="round" stroke-linejoin="round"/>
<path d="M9 13H11.317C11.9237 13 12.388 13.161 12.71 13.483C12.8687 13.6417 12.99 13.826 13.074 14.036C13.1627 14.2413 13.207 14.4723 13.207 14.729C13.207 14.9763 13.165 15.2027 13.081 15.408C13.0017 15.6133 12.885 15.7907 12.731 15.94C12.5817 16.0847 12.3997 16.199 12.185 16.283C11.9703 16.3623 11.7277 16.402 11.457 16.402H10.211V18.208H9V13ZM10.211 15.457H11.226C11.478 15.457 11.6693 15.3917 11.8 15.261C11.9353 15.1303 12.003 14.953 12.003 14.729C12.003 14.5003 11.9353 14.3253 11.8 14.204C11.6693 14.078 11.4803 14.015 11.233 14.015H10.211V15.457Z" fill="#2B2B2B"/>
<path d="M13.8128 13H15.9828C16.3468 13 16.6758 13.063 16.9698 13.189C17.2685 13.315 17.5228 13.4923 17.7328 13.721C17.9428 13.9497 18.1038 14.2273 18.2158 14.554C18.3278 14.8807 18.3838 15.2423 18.3838 15.639C18.3838 16.0263 18.3302 16.3787 18.2228 16.696C18.1155 17.0087 17.9568 17.277 17.7468 17.501C17.5368 17.725 17.2778 17.9 16.9698 18.026C16.6618 18.1473 16.3095 18.208 15.9128 18.208H13.8128V13ZM15.8218 17.2C16.2745 17.2 16.6105 17.0647 16.8298 16.794C17.0538 16.5233 17.1658 16.1383 17.1658 15.639C17.1658 15.1443 17.0538 14.75 16.8298 14.456C16.6105 14.1573 16.2815 14.008 15.8428 14.008H15.0098V17.2H15.8218Z" fill="#2B2B2B"/>
<path d="M19.0352 13H22.8572V14.015H20.2252V15.149H22.4232V16.122H20.2252V18.208H19.0352V13Z" fill="#2B2B2B"/>
</svg>
