<svg width="24" height="24" viewBox="0 0 24 24" fill="none" xmlns="http://www.w3.org/2000/svg">
<path d="M8.5 22H5C4.46957 22 3.96086 21.7893 3.58579 21.4142C3.21071 21.0391 3 20.5304 3 20V4C3 3.46957 3.21071 2.96086 3.58579 2.58579C3.96086 2.21071 4.46957 2 5 2H13L19 8V10" stroke="#2B2B2B" stroke-width="1.5" stroke-linecap="round" stroke-linejoin="round"/>
<path d="M13 2V8H19" stroke="#2B2B2B" stroke-width="1.5" stroke-linecap="round" stroke-linejoin="round"/>
<path d="M10 11.5H6" stroke="#2B2B2B" stroke-width="1.5" stroke-linecap="round" stroke-linejoin="round"/>
<path d="M8 15.5H6" stroke="#2B2B2B" stroke-width="1.5" stroke-linecap="round" stroke-linejoin="round"/>
<path d="M8 7.5H7H6" stroke="#2B2B2B" stroke-width="1.5" stroke-linecap="round" stroke-linejoin="round"/>
<path fill-rule="evenodd" clip-rule="evenodd" d="M10.9749 13.8077C11.774 12.5176 13.1575 11.5 15.3333 11.5C17.3378 11.5 18.7767 12.0187 19.7191 12.8999C20.6643 13.7836 21 14.9292 21 15.9539C21 16.7171 20.9289 17.6993 20.5278 18.4966C20.3189 18.912 20.0072 19.3041 19.5491 19.574C19.0883 19.8456 18.5452 19.9547 17.9414 19.9121C17.1641 19.8573 16.6147 19.4359 16.3171 18.8341C16.0515 18.297 16.0047 17.661 16.03 17.1011C16.0815 15.9643 16.4558 14.7105 16.721 14.0123L18.279 14.6041C18.0442 15.2225 17.7352 16.2891 17.695 17.1765C17.6745 17.6288 17.7298 17.9308 17.8111 18.0952C17.8604 18.1949 17.9026 18.2384 18.0587 18.2495C18.3882 18.2727 18.5826 18.209 18.703 18.138C18.8262 18.0655 18.9395 17.9453 19.0389 17.7477C19.2545 17.319 19.3333 16.6719 19.3333 15.9539C19.3333 15.2853 19.119 14.6206 18.5809 14.1174C18.04 13.6117 17.0622 13.1668 15.3333 13.1668C13.7759 13.1668 12.9094 13.8497 12.3918 14.6854C11.8418 15.5732 11.6667 16.6797 11.6667 17.4351C11.6667 18.1111 11.916 19.1844 12.6688 19.9277C13.3677 20.6179 14.6675 21.1844 17.1336 20.5757L17.533 22.1939C14.6658 22.9017 12.7156 22.3162 11.4978 21.1138C10.334 19.9646 10 18.4047 10 17.4351C10 16.4899 10.2082 15.0455 10.9749 13.8077Z" fill="#2B2B2B"/>
<path fill-rule="evenodd" clip-rule="evenodd" d="M13.9792 14.4629C14.5678 14.1107 15.1891 14.0984 15.5818 14.1372C16.0794 14.1863 16.6381 14.4305 17.0572 14.8847C17.4986 15.3631 17.7546 16.0422 17.6615 16.87C17.5738 17.6487 17.3875 18.4535 16.9345 19.05C16.6963 19.3635 16.3839 19.6202 15.9881 19.7748C15.5968 19.9276 15.1717 19.9623 14.7313 19.9079C14.275 19.8516 13.5969 19.6819 13.1303 19.0531C12.6698 18.4327 12.5651 17.5674 12.7485 16.4807C12.9136 15.5023 13.3554 14.8361 13.9792 14.4629ZM14.8349 15.8932C14.7125 15.9664 14.4934 16.1567 14.3919 16.7581C14.242 17.6463 14.399 17.966 14.4686 18.0598C14.532 18.1452 14.6521 18.2187 14.9354 18.2537C15.1617 18.2816 15.2991 18.2545 15.3817 18.2222C15.4599 18.1917 15.5329 18.1397 15.6073 18.0418C15.7792 17.8155 15.9262 17.386 16.0052 16.6836C16.0454 16.3264 15.9388 16.1305 15.8323 16.015C15.7033 15.8752 15.5287 15.8068 15.4181 15.7959C15.2027 15.7746 14.9925 15.7989 14.8349 15.8932Z" fill="#2B2B2B"/>
</svg>
