<svg width="24" height="24" viewBox="0 0 24 24" fill="none" xmlns="http://www.w3.org/2000/svg">
<path d="M16.5 22H5C4.46957 22 3.96086 21.7893 3.58579 21.4142C3.21071 21.0391 3 20.5304 3 20V4C3 3.46957 3.21071 2.96086 3.58579 2.58579C3.96086 2.21071 4.46957 2 5 2H13L19 7.5V9.5" stroke="#2B2B2B" stroke-width="1.5" stroke-linecap="round" stroke-linejoin="round"/>
<path d="M13 2V7.5H19" stroke="#2B2B2B" stroke-width="1.5" stroke-linecap="round" stroke-linejoin="round"/>
<path d="M6 13H7.038L7.464 14.746C7.504 14.91 7.538 15.09 7.566 15.286C7.598 15.478 7.626 15.662 7.65 15.838C7.674 16.042 7.698 16.246 7.722 16.45H7.734C7.762 16.238 7.794 16.026 7.83 15.814C7.858 15.634 7.89 15.444 7.926 15.244C7.962 15.044 7.996 14.866 8.028 14.71L8.424 13H9.39L9.786 14.704C9.818 14.86 9.852 15.04 9.888 15.244C9.924 15.444 9.956 15.634 9.984 15.814C10.016 16.026 10.046 16.238 10.074 16.45H10.086C10.11 16.242 10.138 16.036 10.17 15.832C10.194 15.656 10.222 15.47 10.254 15.274C10.29 15.078 10.328 14.9 10.368 14.74L10.782 13H11.82L10.596 17.464H9.594L9.162 15.592C9.13 15.452 9.1 15.294 9.072 15.118C9.044 14.942 9.018 14.774 8.994 14.614C8.966 14.426 8.94 14.238 8.916 14.05H8.904C8.88 14.238 8.854 14.426 8.826 14.614C8.802 14.774 8.776 14.942 8.748 15.118C8.72 15.294 8.69 15.452 8.658 15.592L8.22 17.464H7.212L6 13Z" fill="#2B2B2B"/>
<path d="M12.0213 13H13.0593L13.4853 14.746C13.5253 14.91 13.5593 15.09 13.5873 15.286C13.6193 15.478 13.6473 15.662 13.6713 15.838C13.6953 16.042 13.7193 16.246 13.7433 16.45H13.7553C13.7833 16.238 13.8153 16.026 13.8513 15.814C13.8793 15.634 13.9113 15.444 13.9473 15.244C13.9833 15.044 14.0173 14.866 14.0493 14.71L14.4453 13H15.4113L15.8073 14.704C15.8393 14.86 15.8733 15.04 15.9093 15.244C15.9453 15.444 15.9773 15.634 16.0053 15.814C16.0373 16.026 16.0673 16.238 16.0953 16.45H16.1073C16.1313 16.242 16.1593 16.036 16.1913 15.832C16.2153 15.656 16.2433 15.47 16.2753 15.274C16.3113 15.078 16.3493 14.9 16.3893 14.74L16.8033 13H17.8413L16.6173 17.464H15.6153L15.1833 15.592C15.1513 15.452 15.1213 15.294 15.0933 15.118C15.0653 14.942 15.0393 14.774 15.0153 14.614C14.9873 14.426 14.9613 14.238 14.9373 14.05H14.9253C14.9013 14.238 14.8753 14.426 14.8473 14.614C14.8233 14.774 14.7973 14.942 14.7693 15.118C14.7413 15.294 14.7113 15.452 14.6793 15.592L14.2413 17.464H13.2333L12.0213 13Z" fill="#2B2B2B"/>
<path d="M18.0427 13H19.0807L19.5067 14.746C19.5467 14.91 19.5807 15.09 19.6087 15.286C19.6407 15.478 19.6687 15.662 19.6927 15.838C19.7167 16.042 19.7407 16.246 19.7647 16.45H19.7767C19.8047 16.238 19.8367 16.026 19.8727 15.814C19.9007 15.634 19.9327 15.444 19.9687 15.244C20.0047 15.044 20.0387 14.866 20.0707 14.71L20.4667 13H21.4327L21.8287 14.704C21.8607 14.86 21.8947 15.04 21.9307 15.244C21.9667 15.444 21.9987 15.634 22.0267 15.814C22.0587 16.026 22.0887 16.238 22.1167 16.45H22.1287C22.1527 16.242 22.1807 16.036 22.2127 15.832C22.2367 15.656 22.2647 15.47 22.2967 15.274C22.3327 15.078 22.3707 14.9 22.4107 14.74L22.8247 13H23.8627L22.6387 17.464H21.6367L21.2047 15.592C21.1727 15.452 21.1427 15.294 21.1147 15.118C21.0867 14.942 21.0607 14.774 21.0367 14.614C21.0087 14.426 20.9827 14.238 20.9587 14.05H20.9467C20.9227 14.238 20.8967 14.426 20.8687 14.614C20.8447 14.774 20.8187 14.942 20.7907 15.118C20.7627 15.294 20.7327 15.452 20.7007 15.592L20.2627 17.464H19.2547L18.0427 13Z" fill="#2B2B2B"/>
</svg>
