<svg width="24" height="24" viewBox="0 0 24 24" fill="none" xmlns="http://www.w3.org/2000/svg">
<path d="M7.5 22H5C4.46957 22 3.96086 21.7893 3.58579 21.4142C3.21071 21.0391 3 20.5304 3 20V4C3 3.46957 3.21071 2.96086 3.58579 2.58579C3.96086 2.21071 4.46957 2 5 2H13L19 7.5V9.5" stroke="#2B2B2B" stroke-width="1.5" stroke-linecap="round" stroke-linejoin="round"/>
<path d="M13 2V7.5H19" stroke="#2B2B2B" stroke-width="1.5" stroke-linecap="round" stroke-linejoin="round"/>
<path d="M14.5 22.5C17.5376 22.5 20 20.0376 20 17C20 13.9624 17.5376 11.5 14.5 11.5C11.4624 11.5 9 13.9624 9 17C9 20.0376 11.4624 22.5 14.5 22.5Z" stroke="#2B2B2B" stroke-width="1.3" stroke-linecap="round" stroke-linejoin="round"/>
<path d="M9 17H20" stroke="#2B2B2B" stroke-width="1.3" stroke-linecap="round" stroke-linejoin="round"/>
<path d="M14.5 11.5C15.8757 13.0061 16.6575 14.9606 16.7 17C16.6575 19.0394 15.8757 20.9939 14.5 22.5C13.1243 20.9939 12.3425 19.0394 12.3 17C12.3425 14.9606 13.1243 13.0061 14.5 11.5V11.5Z" stroke="#2B2B2B" stroke-width="1.3" stroke-linecap="round" stroke-linejoin="round"/>
</svg>
