<svg width="24" height="24" viewBox="0 0 24 24" fill="none" xmlns="http://www.w3.org/2000/svg">
<path d="M16.5 22H5C4.46957 22 3.96086 21.7893 3.58579 21.4142C3.21071 21.0391 3 20.5304 3 20V4C3 3.46957 3.21071 2.96086 3.58579 2.58579C3.96086 2.21071 4.46957 2 5 2H13L19 7.5V9.5" stroke="#2B2B2B" stroke-width="1.5" stroke-linecap="round" stroke-linejoin="round"/>
<path d="M13 2V7.5H19" stroke="#2B2B2B" stroke-width="1.5" stroke-linecap="round" stroke-linejoin="round"/>
<path d="M7.455 12.792H9.625C9.989 12.792 10.318 12.855 10.612 12.981C10.9107 13.107 11.165 13.2843 11.375 13.513C11.585 13.7417 11.746 14.0193 11.858 14.346C11.97 14.6727 12.026 15.0343 12.026 15.431C12.026 15.8183 11.9723 16.1707 11.865 16.488C11.7577 16.8007 11.599 17.069 11.389 17.293C11.179 17.517 10.92 17.692 10.612 17.818C10.304 17.9393 9.95167 18 9.555 18H7.455V12.792ZM9.464 16.992C9.91667 16.992 10.2527 16.8567 10.472 16.586C10.696 16.3153 10.808 15.9303 10.808 15.431C10.808 14.9363 10.696 14.542 10.472 14.248C10.2527 13.9493 9.92367 13.8 9.485 13.8H8.652V16.992H9.464Z" fill="#2B2B2B"/>
<path d="M15.0363 18.126C14.6397 18.126 14.2827 18.0583 13.9653 17.923C13.648 17.7877 13.3773 17.5987 13.1533 17.356C12.9293 17.1133 12.7567 16.8263 12.6353 16.495C12.5187 16.1637 12.4603 15.8043 12.4603 15.417C12.4603 15.025 12.5187 14.6633 12.6353 14.332C12.7567 14.0007 12.9293 13.716 13.1533 13.478C13.3773 13.2353 13.648 13.0463 13.9653 12.911C14.2827 12.771 14.6397 12.701 15.0363 12.701C15.4283 12.701 15.783 12.771 16.1003 12.911C16.4177 13.0463 16.6883 13.2353 16.9123 13.478C17.1363 13.716 17.3067 14.0007 17.4233 14.332C17.5447 14.6633 17.6053 15.025 17.6053 15.417C17.6053 15.8043 17.5447 16.1637 17.4233 16.495C17.3067 16.8263 17.1363 17.1133 16.9123 17.356C16.6883 17.5987 16.4177 17.7877 16.1003 17.923C15.783 18.0583 15.4283 18.126 15.0363 18.126ZM15.0433 17.146C15.2673 17.146 15.4633 17.1017 15.6313 17.013C15.7993 16.9243 15.9393 16.803 16.0513 16.649C16.1633 16.495 16.2473 16.313 16.3033 16.103C16.3593 15.893 16.3873 15.6643 16.3873 15.417C16.3873 15.1697 16.3593 14.941 16.3033 14.731C16.2473 14.5163 16.1633 14.3297 16.0513 14.171C15.9393 14.0123 15.7993 13.8887 15.6313 13.8C15.4633 13.7113 15.2673 13.667 15.0433 13.667C14.8193 13.667 14.621 13.7113 14.4483 13.8C14.2803 13.8887 14.138 14.0123 14.0213 14.171C13.9093 14.3297 13.823 14.5163 13.7623 14.731C13.7063 14.941 13.6783 15.1697 13.6783 15.417C13.6783 15.6643 13.7063 15.893 13.7623 16.103C13.823 16.313 13.9093 16.495 14.0213 16.649C14.138 16.803 14.2803 16.9243 14.4483 17.013C14.621 17.1017 14.8193 17.146 15.0433 17.146Z" fill="#2B2B2B"/>
<path d="M20.6071 18.119C20.2291 18.119 19.8815 18.0513 19.5641 17.916C19.2515 17.7807 18.9831 17.594 18.7591 17.356C18.5351 17.1133 18.3601 16.8263 18.2341 16.495C18.1128 16.1637 18.0521 15.8043 18.0521 15.417C18.0521 15.0297 18.1128 14.6703 18.2341 14.339C18.3555 14.0077 18.5258 13.7207 18.7451 13.478C18.9691 13.2353 19.2375 13.0463 19.5501 12.911C19.8675 12.771 20.2198 12.701 20.6071 12.701C20.8965 12.701 21.1625 12.736 21.4051 12.806C21.6478 12.8713 21.8578 12.9717 22.0351 13.107C22.2731 13.2797 22.4575 13.4897 22.5881 13.737C22.7235 13.9843 22.8075 14.255 22.8401 14.549H21.6501C21.6128 14.3017 21.5008 14.0987 21.3141 13.94C21.1321 13.7767 20.8941 13.695 20.6001 13.695C20.3761 13.695 20.1801 13.7393 20.0121 13.828C19.8488 13.912 19.7111 14.031 19.5991 14.185C19.4918 14.339 19.4101 14.521 19.3541 14.731C19.2981 14.941 19.2701 15.1697 19.2701 15.417C19.2701 15.6643 19.3005 15.893 19.3611 16.103C19.4265 16.313 19.5151 16.495 19.6271 16.649C19.7438 16.7983 19.8838 16.9173 20.0471 17.006C20.2151 17.09 20.4018 17.132 20.6071 17.132C20.9291 17.132 21.1835 17.041 21.3701 16.859C21.5568 16.677 21.6641 16.4507 21.6921 16.18H22.8891C22.8705 16.4413 22.8051 16.6887 22.6931 16.922C22.5811 17.1507 22.4365 17.3537 22.2591 17.531C22.0631 17.727 21.8298 17.874 21.5591 17.972C21.2885 18.07 20.9711 18.119 20.6071 18.119Z" fill="#2B2B2B"/>
</svg>
