<svg width="15" height="20" viewBox="0 0 15 20" fill="none" xmlns="http://www.w3.org/2000/svg">
<path d="M12.857 20C13.646 20 14.2855 19.3604 14.2855 18.5714V5.71446C14.2881 5.62059 14.2702 5.52728 14.2332 5.44097C14.1962 5.35465 14.141 5.27738 14.0713 5.21447L9.07132 0.214526C9.00843 0.144773 8.93117 0.0894921 8.84484 0.0524973C8.75852 0.0155025 8.6652 -0.00232556 8.57132 0.000242883H1.42855C1.05003 0.00137339 0.687324 0.152244 0.419663 0.419906C0.152002 0.687567 0.00113051 1.05027 0 1.4288V18.5714C0 18.9503 0.150508 19.3137 0.418414 19.5816C0.68632 19.8495 1.04968 20 1.42855 20H12.857L13.5 18.5714H1.42855V1.4288H7.14277V5.71446C7.1439 6.09299 7.29477 6.45569 7.56243 6.72335C7.83009 6.99101 8.1928 7.14188 8.57132 7.14301H12.857V20V20ZM8.57132 5.71446V1.71451L12.5713 5.71446H8.57132Z" fill="#2B2B2B"/>
</svg>
