<svg width="24" height="24" viewBox="0 0 24 24" fill="none" xmlns="http://www.w3.org/2000/svg">
<path d="M11 22H5C4.46957 22 3.96086 21.7893 3.58579 21.4142C3.21071 21.0391 3 20.5304 3 20V4C3 3.46957 3.21071 2.96086 3.58579 2.58579C3.96086 2.21071 4.46957 2 5 2H13L19 7.5V11.5" stroke="#2B2B2B" stroke-width="1.5" stroke-linecap="round" stroke-linejoin="round"/>
<path d="M13 2V7.5H19" stroke="#2B2B2B" stroke-width="1.5" stroke-linecap="round" stroke-linejoin="round"/>
<path d="M20.3079 13.7903C20.4938 13.6044 20.7459 13.5 21.0088 13.5C21.139 13.5 21.2679 13.5256 21.3881 13.5755C21.5084 13.6253 21.6176 13.6983 21.7097 13.7903C21.8017 13.8824 21.8747 13.9916 21.9246 14.1119C21.9744 14.2321 22 14.361 22 14.4912C22 14.6214 21.9744 14.7503 21.9246 14.8705C21.8747 14.9908 21.8017 15.1 21.7097 15.1921L15.869 21.0327L14 21.5L14.4673 19.631L20.3079 13.7903Z" stroke="#2B2B2B" stroke-width="1.5" stroke-linecap="round" stroke-linejoin="round"/>
<path d="M7 6.75C6.58579 6.75 6.25 7.08579 6.25 7.5C6.25 7.91421 6.58579 8.25 7 8.25V6.75ZM9 8.25C9.41421 8.25 9.75 7.91421 9.75 7.5C9.75 7.08579 9.41421 6.75 9 6.75V8.25ZM7 8.25H9V6.75H7V8.25Z" fill="#2B2B2B"/>
<path d="M7 10.75C6.58579 10.75 6.25 11.0858 6.25 11.5C6.25 11.9142 6.58579 12.25 7 12.25V10.75ZM15 12.25C15.4142 12.25 15.75 11.9142 15.75 11.5C15.75 11.0858 15.4142 10.75 15 10.75V12.25ZM7 12.25L15 12.25V10.75L7 10.75V12.25Z" fill="#2B2B2B"/>
<path d="M7 14.75C6.58579 14.75 6.25 15.0858 6.25 15.5C6.25 15.9142 6.58579 16.25 7 16.25V14.75ZM12 16.25C12.4142 16.25 12.75 15.9142 12.75 15.5C12.75 15.0858 12.4142 14.75 12 14.75V16.25ZM7 16.25H12V14.75L7 14.75V16.25Z" fill="#2B2B2B"/>
</svg>
