<svg width="24" height="24" viewBox="0 0 24 24" fill="none" xmlns="http://www.w3.org/2000/svg">
<path d="M8.5 22H6C5.46957 22 4.96086 21.7893 4.58579 21.4142C4.21071 21.0391 4 20.5304 4 20V4C4 3.46957 4.21071 2.96086 4.58579 2.58579C4.96086 2.21071 5.46957 2 6 2H14L20 8V10" stroke="#2B2B2B" stroke-width="1.5" stroke-linecap="round" stroke-linejoin="round"/>
<path d="M14 2V8H20" stroke="#2B2B2B" stroke-width="1.5" stroke-linecap="round" stroke-linejoin="round"/>
<circle cx="14.5" cy="16.5" r="5.5" stroke="#2B2B2B" stroke-width="1.5"/>
<path d="M12 15C12 14.4477 12.4477 14 13 14H16C16.5523 14 17 14.4477 17 15V18C17 18.5523 16.5523 19 16 19H13C12.4477 19 12 18.5523 12 18V15Z" fill="#2B2B2B"/>
</svg>
