<svg width="9" height="9" viewBox="0 0 9 9" fill="none" xmlns="http://www.w3.org/2000/svg">
<rect width="9" height="9" fill="white"/>
<path d="M2.81065 7.63912C2.47732 7.97245 1.93688 7.97245 1.60355 7.63912V7.63912C1.27022 7.30579 1.27022 6.76535 1.60355 6.43202L6.43195 1.60362C6.76528 1.27029 7.30572 1.27029 7.63905 1.60362V1.60362C7.97238 1.93696 7.97238 2.47739 7.63905 2.81072L2.81065 7.63912Z" fill="#991E01"/>
<path d="M7.63913 6.43195C7.97247 6.76528 7.97247 7.30571 7.63913 7.63905V7.63905C7.3058 7.97238 6.76537 7.97238 6.43204 7.63905L1.60364 2.81065C1.27031 2.47732 1.27031 1.93688 1.60364 1.60355V1.60355C1.93697 1.27022 2.4774 1.27022 2.81074 1.60355L7.63913 6.43195Z" fill="#991E01"/>
</svg>
