<svg width="9" height="9" viewBox="0 0 9 9" fill="none" xmlns="http://www.w3.org/2000/svg">
<rect width="9" height="9" fill="white"/>
<path d="M3.65028 7.26276C3.3044 7.60864 2.74362 7.60864 2.39773 7.26276V7.26276C2.05185 6.91688 2.05185 6.35609 2.39773 6.01021L6.78167 1.62628C7.12755 1.28039 7.68834 1.28039 8.03422 1.62628V1.62628C8.3801 1.97216 8.3801 2.53295 8.03422 2.87883L3.65028 7.26276Z" fill="#60964D"/>
<path d="M3.59659 6.01023C3.94247 6.35612 3.94247 6.9169 3.59659 7.26279V7.26279C3.2507 7.60867 2.68992 7.60867 2.34404 7.26279L0.626276 5.54503C0.280394 5.19914 0.280394 4.63836 0.626276 4.29247V4.29247C0.972159 3.94659 1.53295 3.94659 1.87883 4.29247L3.59659 6.01023Z" fill="#60964D"/>
</svg>
