<svg width="9" height="9" viewBox="0 0 9 9" fill="none" xmlns="http://www.w3.org/2000/svg">
<rect width="9" height="9" fill="white"/>
<path d="M8 7.16735C8 7.58744 7.65946 7.92798 7.23938 7.92798V7.92798C6.8193 7.92798 6.47876 7.58744 6.47876 7.16736L6.47876 1.84299C6.47876 1.42291 6.8193 1.08236 7.23938 1.08236V1.08236C7.65946 1.08236 8 1.42291 8 1.84299L8 7.16735Z" fill="#679AC7"/>
<path d="M4.67018 1.7464C4.75104 1.33418 5.15077 1.06555 5.56299 1.14641V1.14641C5.97522 1.22727 6.24384 1.627 6.16298 2.03922L5.13811 7.26402C5.05725 7.67625 4.65753 7.94487 4.2453 7.86401V7.86401C3.83308 7.78315 3.56445 7.38343 3.64531 6.9712L4.67018 1.7464Z" fill="#679AC7"/>
<path d="M2.4661 2.48237C2.58177 2.07853 3.00292 1.84492 3.40676 1.96059V1.96059C3.8106 2.07627 4.04421 2.49742 3.92854 2.90126L2.67188 7.28858C2.55621 7.69242 2.13506 7.92603 1.73122 7.81036V7.81036C1.32738 7.69468 1.09377 7.27353 1.20944 6.86969L2.4661 2.48237Z" fill="#679AC7"/>
</svg>
