<svg width="8" height="10" viewBox="0 0 8 10" fill="none" xmlns="http://www.w3.org/2000/svg">
<path d="M8 8.62422C8 9.17651 7.55228 9.62422 7 9.62422V9.62422C6.44772 9.62422 6 9.17651 6 8.62422L6 3.62422C6 3.07194 6.44772 2.62422 7 2.62422V2.62422C7.55228 2.62422 8 3.07194 8 3.62422L8 8.62422Z" fill="#CE7104"/>
<path d="M3 2.35091C3 1.79863 3.44772 1.35091 4 1.35091V1.35091C4.55229 1.35091 5 1.79863 5 2.35091L5 7.35091C5 7.9032 4.55228 8.35091 4 8.35091V8.35091C3.44772 8.35091 3 7.9032 3 7.35091L3 2.35091Z" fill="#CE7104"/>
<path d="M7.22517e-07 1.37578C7.89023e-07 0.823493 0.447716 0.375778 1 0.375778V0.375778C1.55229 0.375778 2 0.823493 2 1.37578L2 6.37578C2 6.92806 1.55228 7.37578 1 7.37578V7.37578C0.447715 7.37578 5.39137e-08 6.92806 1.2042e-07 6.37578L7.22517e-07 1.37578Z" fill="#CE7104"/>
</svg>
