<svg width="9" height="9" viewBox="0 0 9 9" fill="none" xmlns="http://www.w3.org/2000/svg">
<g clip-path="url(#clip0_103_42)">
<rect width="9" height="9" fill="white"/>
<path d="M0.868544 8.07007C0.38886 8.07007 -1.69977e-08 7.68121 -3.79653e-08 7.20153V7.20153C-5.89329e-08 6.72184 0.38886 6.33298 0.868544 6.33298L6.94835 6.33298C7.42804 6.33298 7.8169 6.72184 7.8169 7.20153V7.20153C7.8169 7.68121 7.42804 8.07007 6.94835 8.07007L0.868544 8.07007Z" fill="#CE7104"/>
<path d="M7.81688 3.66649C8.29656 3.66649 8.68542 4.05535 8.68542 4.53503V4.53503C8.68542 5.01472 8.29656 5.40358 7.81688 5.40358L1.73707 5.40358C1.25739 5.40358 0.868527 5.01472 0.868527 4.53503V4.53503C0.868527 4.05535 1.25739 3.66649 1.73707 3.66649L7.81688 3.66649Z" fill="#CE7104"/>
<path d="M6.07982 1C6.5595 1 6.94836 1.38886 6.94836 1.86854V1.86854C6.94836 2.34823 6.5595 2.73709 6.07982 2.73709L0.868555 2.73709C0.388872 2.73709 1.07164e-05 2.34823 1.07373e-05 1.86854V1.86854C1.07583e-05 1.38886 0.388871 1 0.868555 1L6.07982 1Z" fill="#CE7104"/>
</g>
<defs>
<clipPath id="clip0_103_42">
<rect width="9" height="9" fill="white"/>
</clipPath>
</defs>
</svg>
