<svg width="11" height="15" viewBox="0 0 11 15" fill="none" xmlns="http://www.w3.org/2000/svg">
<path d="M10.5409 14.0825C10.6554 14.0823 10.7659 14.1249 10.8505 14.2021C10.9351 14.2792 10.9878 14.3853 10.9981 14.4993C11.0085 14.6134 10.9757 14.7272 10.9064 14.8183C10.837 14.9094 10.7361 14.9713 10.6234 14.9917L10.5409 14.999H0.459107C0.344591 14.9992 0.234146 14.9565 0.14952 14.8794C0.0648947 14.8022 0.0122225 14.6962 0.00187543 14.5822C-0.00847166 14.4681 0.0242563 14.3543 0.0936149 14.2632C0.162973 14.1721 0.263936 14.1102 0.37662 14.0898L0.459107 14.0825H10.5409ZM5.5 0.33551C5.60726 0.335475 5.71113 0.373062 5.79353 0.441726C5.87592 0.51039 5.93162 0.605781 5.95093 0.711286L5.95826 0.793773L5.9546 11.6033L9.29533 8.25979C9.37104 8.18374 9.47105 8.13667 9.5779 8.12679C9.68476 8.1169 9.7917 8.14484 9.88008 8.20572L9.94423 8.25888C10.0201 8.3347 10.067 8.43476 10.0768 8.54162C10.0865 8.64847 10.0584 8.75535 9.99739 8.84362L9.94423 8.90778L5.8272 13.0321C5.76336 13.0959 5.68202 13.1393 5.59349 13.1568L5.49633 13.166C5.42642 13.1659 5.35746 13.1498 5.29471 13.119C5.23196 13.0882 5.17709 13.0434 5.13431 12.9882L1.04935 8.90778C0.967845 8.8271 0.91955 8.7188 0.914001 8.60425C0.908452 8.48971 0.946053 8.37725 1.01938 8.28907C1.0927 8.20089 1.19643 8.14342 1.31006 8.12799C1.4237 8.11255 1.53899 8.14029 1.63318 8.20572L1.69733 8.25888L5.03807 11.5959L5.04174 0.79469C5.04162 0.734433 5.05338 0.674744 5.07636 0.619039C5.09933 0.563334 5.13307 0.512707 5.17563 0.470056C5.2182 0.427406 5.26876 0.393568 5.32442 0.370481C5.38008 0.347394 5.43974 0.33551 5.5 0.33551Z" fill="black"/>
</svg>
