<svg width="14" height="14" viewBox="0 0 14 14" fill="none" xmlns="http://www.w3.org/2000/svg">
<path d="M7 0C3.13402 0 0 3.13402 0 7C0 10.866 3.13402 14 7 14C10.866 14 14 10.866 14 7C14 3.13402 10.866 0 7 0ZM11.2898 11.2898C10.2261 12.3503 8.80565 12.9768 7.30525 13.0472C5.80485 13.1177 4.33197 12.627 3.1736 11.6708C2.01524 10.7146 1.25436 9.36134 1.03923 7.87478C0.824106 6.38821 1.17014 4.8748 2.00991 3.62943C2.84968 2.38407 4.12302 1.49595 5.58183 1.13815C7.04065 0.780344 8.58042 0.978476 9.90112 1.69394C11.2218 2.40941 12.2289 3.59095 12.726 5.00834C13.2231 6.42574 13.1747 7.97745 12.5903 9.36113C12.2857 10.0821 11.844 10.7371 11.2898 11.2898Z" fill="#2B2B2B"/>
<path d="M3.26666 5.13333H4.43333V6.3H3.26666V5.13333Z" fill="#2B2B2B"/>
<path d="M9.3335 5.1333H10.5002V6.29997H9.3335V5.1333Z" fill="#2B2B2B"/>
<path d="M6.29997 8.48597C6.29997 8.47229 6.30187 8.45867 6.30563 8.44552L7.2333 5.19868V4.43332H6.29997V5.06796L5.40823 8.18905C5.36227 8.34989 5.35427 8.51919 5.38487 8.68364C5.41547 8.84809 5.48382 9.0032 5.58455 9.13674C5.68528 9.27028 5.81563 9.37862 5.96534 9.45322C6.11506 9.52782 6.28005 9.56665 6.44732 9.56665H8.16664V8.63332H6.44732C6.40825 8.63328 6.37079 8.61774 6.34317 8.59012C6.31554 8.56249 6.30001 8.52504 6.29997 8.48597V8.48597Z" fill="#2B2B2B"/>
</svg>
