<svg width="14" height="14" viewBox="0 0 14 14" fill="none" xmlns="http://www.w3.org/2000/svg">
<path d="M2.56641 5.0332H3.48307V5.94987H2.56641V5.0332Z" fill="#2B2B2B"/>
<path d="M7.33301 5.0332H8.24967V5.94987H7.33301V5.0332Z" fill="#2B2B2B"/>
<path d="M4.95013 7.66762C4.95013 7.65687 4.95162 7.64618 4.95457 7.63584L5.68346 5.08475V4.4834H4.95013V4.98204L4.24947 7.43433C4.21336 7.5607 4.20708 7.69373 4.23112 7.82294C4.25516 7.95215 4.30887 8.07402 4.38801 8.17894C4.46716 8.28387 4.56958 8.36899 4.68721 8.42761C4.80484 8.48622 4.93448 8.51673 5.0659 8.51673H6.41679V7.7834H5.0659C5.03521 7.78337 5.00578 7.77116 4.98407 7.74946C4.96237 7.72775 4.95016 7.69832 4.95013 7.66762V7.66762Z" fill="#2B2B2B"/>
<rect x="8.5" y="8.5" width="5" height="3.71429" stroke="#2B2B2B"/>
<path fill-rule="evenodd" clip-rule="evenodd" d="M0 6.5C0 3.46244 2.46244 1 5.5 1C8.53756 1 11 3.46244 11 6.5C11 7.40022 10.7837 8.24993 10.4003 9H9.5598C9.68665 8.79431 9.7979 8.57878 9.89237 8.35517C10.3516 7.268 10.3896 6.0488 9.99899 4.93513C9.60839 3.82146 8.81715 2.8931 7.77945 2.33095C6.74176 1.7688 5.53194 1.61313 4.38573 1.89426C3.23952 2.17539 2.23903 2.87319 1.57921 3.8517C0.919396 4.8302 0.647512 6.01931 0.81654 7.18733C0.985569 8.35534 1.5834 9.41859 2.49355 10.1699C3.40369 10.9212 4.56095 11.3067 5.73984 11.2514C6.91872 11.1961 8.03478 10.7038 8.87054 9.87054C8.9146 9.8266 8.95776 9.78183 9 9.73627V10.7428C8.04906 11.5282 6.82963 12 5.5 12C2.46244 12 0 9.53756 0 6.5Z" fill="#2B2B2B"/>
</svg>
