<svg width="11" height="12" viewBox="0 0 11 12" fill="none" xmlns="http://www.w3.org/2000/svg">
<path d="M5.80899 0.671503C7.16462 0.673688 8.47648 1.14017 9.51594 1.98964V0H10.5605V4.04145H6.42045V3.02176H9.13378C8.41617 2.33732 7.49504 1.89218 6.50237 1.75012C5.5097 1.60807 4.49644 1.77639 3.60777 2.23096C2.71911 2.68554 2.00065 3.40304 1.55534 4.28066C1.11003 5.15829 0.960719 6.15099 1.12881 7.11652C1.2969 8.08206 1.77376 8.97088 2.49106 9.65564C3.20837 10.3404 4.1293 10.7859 5.1219 10.9284C6.11451 11.0709 7.12785 10.903 8.01672 10.4488C8.90558 9.99462 9.62437 9.27743 10.0701 8.4L11 8.85389C10.5402 9.75829 9.84109 10.5263 8.97509 11.0783C8.10909 11.6304 7.10766 11.9464 6.0745 11.9938C5.04134 12.0411 4.014 11.818 3.09883 11.3476C2.18367 10.8771 1.41396 10.1764 0.869391 9.31803C0.324822 8.45965 0.0251909 7.47478 0.00152011 6.46538C-0.0221506 5.45598 0.230999 4.45876 0.73476 3.57695C1.23852 2.69514 1.97458 1.9608 2.86673 1.44996C3.75888 0.93913 4.77469 0.670368 5.80899 0.671503V0.671503Z" fill="black"/>
</svg>
