<svg id="Layer_1" data-name="Layer 1" xmlns="http://www.w3.org/2000/svg" viewBox="0 0 21 20"><defs><style>.cls-1{fill:#9facbb;}</style></defs><path class="cls-1" d="M1.5,10.7A3.31,3.31,0,0,1,4.81,7.39a3.59,3.59,0,0,1,.47,0l1.29.18.36-1.25a4.61,4.61,0,0,1,6.19-3l1.06-1.17A6.13,6.13,0,0,0,5.49,5.93a5.07,5.07,0,0,0-.68,0,4.81,4.81,0,0,0-2.28,9L3.6,13.77A3.3,3.3,0,0,1,1.5,10.7Z"/><path class="cls-1" d="M17.5,7.66h0v0h0a6.07,6.07,0,0,0-.44-2.26L15.89,6.66a4.46,4.46,0,0,1,.11,1V9l1.33.15a2.44,2.44,0,0,1,0,4.85H9.17l-1.38,1.5H16l1.5,0h0a3.94,3.94,0,0,0,0-7.83Z"/><polygon class="cls-1" points="16.36 4.09 17.39 2.96 18.32 1.95 18.41 1.85 17.32 0.86 17.23 0.95 16.37 1.89 15.36 2.99 14.34 4.11 5.29 14.01 5.24 14.06 4.84 14.5 4.83 14.51 4.81 14.53 4.79 14.55 4.79 14.56 4.42 14.95 4.38 15.01 4 15.42 3.93 15.49 3.91 15.51 2.88 16.64 2.84 16.69 2.63 16.92 3.71 17.92 4.54 17.01 4.78 16.75 4.79 16.75 4.81 16.71 4.84 16.69 4.85 16.68 5.91 15.51 7.29 14.01 15.31 5.24 16.36 4.09"/></svg>