<svg width="22" height="22" viewBox="0 0 22 22" fill="none" xmlns="http://www.w3.org/2000/svg">
<path d="M18.4384 19.1022C16.8656 20.5466 14.9061 21.5019 12.7992 21.8516C10.6922 22.2012 8.52908 21.93 6.57378 21.0711C4.61847 20.2122 2.95563 18.8027 1.78826 17.0147C0.620898 15.2267 -0.000478254 13.1377 2.76184e-07 11.0025H1.83303C1.8329 12.848 2.39023 14.6506 3.43206 16.1741C4.47388 17.6976 5.95162 18.8711 7.67179 19.5409C9.39195 20.2107 11.2743 20.3456 13.0725 19.9279C14.8706 19.5102 16.5007 18.5594 17.7492 17.2H15.0858C14.8427 17.2 14.6096 17.1035 14.4377 16.9317C14.2659 16.7599 14.1693 16.5268 14.1693 16.2838C14.1693 16.0408 14.2659 15.8077 14.4377 15.6359C14.6096 15.4641 14.8427 15.3675 15.0858 15.3675H19.3549C19.598 15.3675 19.8311 15.4641 20.003 15.6359C20.1749 15.8077 20.2715 16.0408 20.2715 16.2838V20.548C20.2715 20.791 20.1749 21.0241 20.003 21.1959C19.8311 21.3677 19.598 21.4643 19.3549 21.4643C19.1119 21.4643 18.8787 21.3677 18.7069 21.1959C18.535 21.0241 18.4384 20.791 18.4384 20.548V19.1003V19.1022ZM4.24713 4.80684H6.91051C7.15359 4.80684 7.38671 4.90338 7.55859 5.07521C7.73047 5.24704 7.82703 5.48009 7.82703 5.72309C7.82703 5.9661 7.73047 6.19915 7.55859 6.37098C7.38671 6.54281 7.15359 6.63934 6.91051 6.63934H2.63956C2.39649 6.63934 2.16337 6.54281 1.99149 6.37098C1.81961 6.19915 1.72305 5.9661 1.72305 5.72309V1.4552C1.72305 1.2122 1.81961 0.979144 1.99149 0.807314C2.16337 0.635484 2.39649 0.53895 2.63956 0.53895C2.88263 0.53895 3.11575 0.635484 3.28763 0.807314C3.45951 0.979144 3.55607 1.2122 3.55607 1.4552V2.90288C5.12873 1.45667 7.08873 0.499778 9.19656 0.149137C11.3044 -0.201505 13.4687 0.0692921 15.4251 0.928435C17.3815 1.78758 19.0452 3.19785 20.2128 4.98691C21.3804 6.77598 22.0015 8.86633 22 11.0025H20.167C20.1671 9.15678 19.6097 7.354 18.5676 5.83034C17.5256 4.30668 16.0475 3.13316 14.327 2.46351C12.6065 1.79385 10.7239 1.65928 8.92557 2.07741C7.12729 2.49555 5.49725 3.44689 4.24896 4.80684H4.24713Z" fill="black"/>
</svg>
