<svg width="13" height="13" viewBox="0 0 13 13" fill="none" xmlns="http://www.w3.org/2000/svg">
<path d="M0.464286 0C0.341149 0 0.223057 0.0489158 0.135986 0.135986C0.0489158 0.223057 0 0.341149 0 0.464286V4.17857C0 4.30171 0.0489158 4.4198 0.135986 4.50687C0.223057 4.59394 0.341149 4.64286 0.464286 4.64286C0.587422 4.64286 0.705515 4.59394 0.792585 4.50687C0.879656 4.4198 0.928571 4.30171 0.928571 4.17857V1.58507L3.84986 4.50729C3.93704 4.59447 4.05528 4.64344 4.17857 4.64344C4.30186 4.64344 4.42011 4.59447 4.50729 4.50729C4.59447 4.42011 4.64344 4.30186 4.64344 4.17857C4.64344 4.05528 4.59447 3.93704 4.50729 3.84986L1.58507 0.928571H4.17857C4.30171 0.928571 4.4198 0.879656 4.50687 0.792585C4.59394 0.705515 4.64286 0.587422 4.64286 0.464286C4.64286 0.341149 4.59394 0.223057 4.50687 0.135986C4.4198 0.0489158 4.30171 0 4.17857 0H0.464286ZM0.464286 13C0.341149 13 0.223057 12.9511 0.135986 12.864C0.0489158 12.7769 0 12.6589 0 12.5357V8.82143C0 8.69829 0.0489158 8.5802 0.135986 8.49313C0.223057 8.40606 0.341149 8.35714 0.464286 8.35714C0.587422 8.35714 0.705515 8.40606 0.792585 8.49313C0.879656 8.5802 0.928571 8.69829 0.928571 8.82143V11.4149L3.84986 8.49271C3.93704 8.40553 4.05528 8.35656 4.17857 8.35656C4.30186 8.35656 4.42011 8.40553 4.50729 8.49271C4.59447 8.57989 4.64344 8.69814 4.64344 8.82143C4.64344 8.94472 4.59447 9.06296 4.50729 9.15014L1.58507 12.0714H4.17857C4.30171 12.0714 4.4198 12.1203 4.50687 12.2074C4.59394 12.2945 4.64286 12.4126 4.64286 12.5357C4.64286 12.6589 4.59394 12.7769 4.50687 12.864C4.4198 12.9511 4.30171 13 4.17857 13H0.464286ZM13 0.464286C13 0.341149 12.9511 0.223057 12.864 0.135986C12.7769 0.0489158 12.6589 0 12.5357 0H8.82143C8.69829 0 8.5802 0.0489158 8.49313 0.135986C8.40606 0.223057 8.35714 0.341149 8.35714 0.464286C8.35714 0.587422 8.40606 0.705515 8.49313 0.792585C8.5802 0.879656 8.69829 0.928571 8.82143 0.928571H11.4149L8.49271 3.84986C8.40553 3.93704 8.35656 4.05528 8.35656 4.17857C8.35656 4.30186 8.40553 4.42011 8.49271 4.50729C8.57989 4.59447 8.69814 4.64344 8.82143 4.64344C8.94472 4.64344 9.06296 4.59447 9.15014 4.50729L12.0714 1.58507V4.17857C12.0714 4.30171 12.1203 4.4198 12.2074 4.50687C12.2945 4.59394 12.4126 4.64286 12.5357 4.64286C12.6589 4.64286 12.7769 4.59394 12.864 4.50687C12.9511 4.4198 13 4.30171 13 4.17857V0.464286ZM12.5357 13C12.6589 13 12.7769 12.9511 12.864 12.864C12.9511 12.7769 13 12.6589 13 12.5357V8.82143C13 8.69829 12.9511 8.5802 12.864 8.49313C12.7769 8.40606 12.6589 8.35714 12.5357 8.35714C12.4126 8.35714 12.2945 8.40606 12.2074 8.49313C12.1203 8.5802 12.0714 8.69829 12.0714 8.82143V11.4149L9.15014 8.49271C9.06296 8.40553 8.94472 8.35656 8.82143 8.35656C8.69814 8.35656 8.57989 8.40553 8.49271 8.49271C8.40553 8.57989 8.35656 8.69814 8.35656 8.82143C8.35656 8.94472 8.40553 9.06296 8.49271 9.15014L11.4149 12.0714H8.82143C8.69829 12.0714 8.5802 12.1203 8.49313 12.2074C8.40606 12.2945 8.35714 12.4126 8.35714 12.5357C8.35714 12.6589 8.40606 12.7769 8.49313 12.864C8.5802 12.9511 8.69829 13 8.82143 13H12.5357Z" fill="black"/>
</svg>
