<svg width="24" height="24" viewBox="0 0 24 24" fill="none" xmlns="http://www.w3.org/2000/svg">
<path fill-rule="evenodd" clip-rule="evenodd" d="M8 12.5C8.82843 12.5 9.5 11.8284 9.5 11C9.5 10.1716 8.82843 9.5 8 9.5C7.17157 9.5 6.5 10.1716 6.5 11C6.5 11.8284 7.17157 12.5 8 12.5ZM8 14C9.65685 14 11 12.6569 11 11C11 9.34315 9.65685 8 8 8C6.34315 8 5 9.34315 5 11C5 12.6569 6.34315 14 8 14Z" fill="black"/>
<path fill-rule="evenodd" clip-rule="evenodd" d="M8 15.5C6.6038 15.5 5.39855 16.3175 4.83682 17.5H11.1632C10.6015 16.3175 9.3962 15.5 8 15.5ZM12.7711 17.5C12.134 15.4714 10.2388 14 8 14C5.76118 14 3.86603 15.4714 3.2289 17.5C3.08018 17.9735 3 18.4774 3 19H13C13 18.4774 12.9198 17.9735 12.7711 17.5Z" fill="black"/>
<path fill-rule="evenodd" clip-rule="evenodd" d="M12 5.00435L11.45 5H2.85714C1.83147 5 1 5.83147 1 6.85714V20.1429C1 21.1685 1.83147 22 2.85714 22H21.1429C22.1685 22 23 21.1685 23 20.1429V6.72834C23 5.81707 22.2613 5.07834 21.35 5.07834L21 5.07557V6.57562L21.3381 6.57829V6.57834H21.35C21.4328 6.57834 21.5 6.6455 21.5 6.72834V20.1429C21.5 20.3401 21.3401 20.5 21.1429 20.5H2.85714C2.6599 20.5 2.5 20.3401 2.5 20.1429V6.85714C2.5 6.6599 2.6599 6.5 2.85714 6.5H11.4441L12 6.5044V5.00435Z" fill="black"/>
<path fill-rule="evenodd" clip-rule="evenodd" d="M14.25 14C14.25 13.5858 14.5858 13.25 15 13.25L20 13.25C20.4142 13.25 20.75 13.5858 20.75 14C20.75 14.4142 20.4142 14.75 20 14.75L15 14.75C14.5858 14.75 14.25 14.4142 14.25 14Z" fill="black"/>
<path fill-rule="evenodd" clip-rule="evenodd" d="M14.25 17C14.25 16.5858 14.5858 16.25 15 16.25L20 16.25C20.4142 16.25 20.75 16.5858 20.75 17C20.75 17.4142 20.4142 17.75 20 17.75L15 17.75C14.5858 17.75 14.25 17.4142 14.25 17Z" fill="black"/>
<path d="M16.5 6C17.3284 6 18 5.51158 18 4.90909V4H15V4.90909C15 5.51158 15.6716 6 16.5 6Z" fill="black"/>
<path fill-rule="evenodd" clip-rule="evenodd" d="M13.4 3C13.4 2.66863 13.6686 2.4 14 2.4H19C19.3314 2.4 19.6 2.66863 19.6 3V4.65639C19.6 5.61979 19.121 6.45556 18.3919 6.98785C19.1165 7.49427 19.6 8.29038 19.6 9.22684V11C19.6 11.1591 19.5368 11.3117 19.4243 11.4243C19.3117 11.5368 19.1591 11.6 19 11.6L14 11.6C13.6686 11.6 13.4 11.3314 13.4 11L13.4 9.22684C13.4 8.29038 13.8835 7.49427 14.6081 6.98785C13.879 6.45556 13.4 5.61979 13.4 4.65639V3ZM16.5 7.6C15.3835 7.6 14.6 8.39175 14.6 9.22684L14.6 10.4L18.4 10.4V9.22684C18.4 8.39175 17.6165 7.6 16.5 7.6ZM14.6 3.6V4.65639C14.6 5.58344 15.4136 6.4 16.5 6.4C17.5864 6.4 18.4 5.58344 18.4 4.65639V3.6H14.6Z" fill="black"/>
</svg>
