<?xml version="1.0" encoding="utf-8"?>
<!-- Generator: Adobe Illustrator 26.0.1, SVG Export Plug-In . SVG Version: 6.00 Build 0)  -->
<svg version="1.1" id="Layer_1" xmlns="http://www.w3.org/2000/svg" xmlns:xlink="http://www.w3.org/1999/xlink" x="0px" y="0px"
	 viewBox="0 0 24 24" style="enable-background:new 0 0 24 24;" xml:space="preserve">
<style type="text/css">
	.st0{fill-rule:evenodd;clip-rule:evenodd;fill:#2B2B2B;}
</style>
<path class="st0" d="M17.1,8.4c0-0.4,0.3-0.7,0.7-0.7h0.9c0.4,0,0.7,0.3,0.7,0.7S19,9.1,18.6,9.1h-0.9C17.4,9.1,17.1,8.8,17.1,8.4z"
	/>
<path class="st0" d="M13.6,8.4c0-0.4,0.3-0.7,0.7-0.7h0.9c0.4,0,0.7,0.3,0.7,0.7s-0.3,0.7-0.7,0.7h-0.9C13.9,9.1,13.6,8.8,13.6,8.4z
	"/>
<path class="st0" d="M16.8,16.2L12.5,20l-4.3-3.8c-0.3-0.3-0.3-0.7-0.1-1c0.2-0.3,0.7-0.3,1-0.1l2.6,2.3V15c0-3.5-2.8-6.2-6.2-6.2H1
	V7.2h4.5c4.3,0,7.8,3.5,7.8,7.8v2.4l2.6-2.3c0.3-0.3,0.8-0.2,1,0.1C17.1,15.5,17,16,16.8,16.2z"/>
<path class="st0" d="M20.5,8.4c0-0.4,0.3-0.7,0.7-0.7H22c0.4,0,0.7,0.3,0.7,0.7S22.4,9.1,22,9.1h-0.9C20.8,9.1,20.5,8.8,20.5,8.4z"
	/>
</svg>
