<?xml version="1.0" encoding="utf-8"?>
<!-- Generator: Adobe Illustrator 26.0.1, SVG Export Plug-In . SVG Version: 6.00 Build 0)  -->
<svg version="1.1" id="Layer_1" xmlns="http://www.w3.org/2000/svg" xmlns:xlink="http://www.w3.org/1999/xlink" x="0px" y="0px"
	 viewBox="0 0 24 24" style="enable-background:new 0 0 24 24;" xml:space="preserve">
<style type="text/css">
	.st0{fill-rule:evenodd;clip-rule:evenodd;}
</style>
<path class="st0" d="M8,12.5c0.8,0,1.5-0.7,1.5-1.5S8.8,9.5,8,9.5S6.5,10.2,6.5,11S7.2,12.5,8,12.5z M8,14c1.7,0,3-1.3,3-3
	c0-1.7-1.3-3-3-3s-3,1.3-3,3C5,12.7,6.3,14,8,14z"/>
<path class="st0" d="M8,15.5c-1.4,0-2.6,0.8-3.2,2h6.3C10.6,16.3,9.4,15.5,8,15.5z M12.8,17.5c-0.6-2-2.5-3.5-4.8-3.5
	c-2.2,0-4.1,1.5-4.8,3.5C3.1,18,3,18.5,3,19h10C13,18.5,12.9,18,12.8,17.5z"/>
<path class="st0" d="M12,5l-0.6,0H2.9C1.8,5,1,5.8,1,6.9v13.3c0,1,0.8,1.9,1.9,1.9h18.3c1,0,1.9-0.8,1.9-1.9V6.7
	c0-0.9-0.7-1.7-1.6-1.7l-0.4,0v1.5l0.3,0v0h0c0.1,0,0.1,0.1,0.1,0.2v13.4c0,0.2-0.2,0.4-0.4,0.4H2.9c-0.2,0-0.4-0.2-0.4-0.4V6.9
	c0-0.2,0.2-0.4,0.4-0.4h8.6l0.6,0V5z"/>
<path class="st0" d="M20.5,8.5c0.3,0.3,0.3,0.8,0,1.1c-0.3,0.3-0.8,0.3-1.1,0l-3-3l-3,3c-0.3,0.3-0.8,0.3-1.1,0
	c-0.3-0.3-0.3-0.8,0-1.1l3-3l-3-3c-0.3-0.3-0.3-0.8,0-1.1c0.3-0.3,0.8-0.3,1.1,0l3,3l3-3c0.3-0.3,0.8-0.3,1.1,0
	c0.3,0.3,0.3,0.8,0,1.1l-3,3L20.5,8.5z"/>
<path class="st0" d="M14.2,14c0-0.4,0.3-0.8,0.8-0.8h5c0.4,0,0.8,0.3,0.8,0.8s-0.3,0.8-0.8,0.8h-5C14.6,14.8,14.2,14.4,14.2,14z"/>
<path class="st0" d="M14.2,17c0-0.4,0.3-0.8,0.8-0.8h5c0.4,0,0.8,0.3,0.8,0.8s-0.3,0.8-0.8,0.8h-5C14.6,17.8,14.2,17.4,14.2,17z"/>
</svg>
