<svg width="24" height="24" viewBox="0 0 24 24" fill="none" xmlns="http://www.w3.org/2000/svg">
<path fill-rule="evenodd" clip-rule="evenodd" d="M4.77829 4.52205C3.75054 5.31951 2.92699 6.28313 2.43653 6.92257L2.43343 6.9266L2.43342 6.92659C2.37797 6.99788 2.34796 7.08545 2.34796 7.17546C2.34796 7.26548 2.37797 7.35305 2.43342 7.42434L2.43654 7.42834L2.43653 7.42836C2.92699 8.0678 3.75054 9.03142 4.77829 9.82888C5.81444 10.6329 6.9819 11.2091 8.17557 11.2091C9.36924 11.2091 10.5367 10.6329 11.5729 9.82888C12.6006 9.03146 13.4241 8.0679 13.9145 7.42846C14.0322 7.27494 14.0327 7.07702 13.9143 6.92216C13.4238 6.28272 12.6004 5.31934 11.5729 4.52205C10.5367 3.71806 9.36924 3.14182 8.17557 3.14182C6.9819 3.14182 5.81444 3.71806 4.77829 4.52205ZM14.5096 6.46618L15.1048 6.00966C14.5737 5.3172 13.6609 4.24367 12.4924 3.33696C11.3323 2.43678 9.84346 1.64182 8.17557 1.64182C6.50769 1.64182 5.01887 2.43678 3.85874 3.33696C2.69119 4.2429 1.77901 5.31537 1.24768 6.00789C0.988642 6.34194 0.847961 6.75264 0.847961 7.17546C0.847961 7.59829 0.988642 8.00899 1.24768 8.34304C1.77901 9.03556 2.69119 10.108 3.85874 11.014C5.01887 11.9141 6.50769 12.7091 8.17557 12.7091C9.84346 12.7091 11.3323 11.9141 12.4924 11.014C13.6609 10.1073 14.5737 9.03373 15.1048 8.34127L15.1049 8.34116C15.6358 7.64871 15.6354 6.70274 15.1053 6.01023L14.5096 6.46618Z" fill="#2B2B2B"/>
<path fill-rule="evenodd" clip-rule="evenodd" d="M8.17547 5.53365C7.26871 5.53365 6.53365 6.26871 6.53365 7.17547C6.53365 8.08222 7.26871 8.81729 8.17547 8.81729C9.08222 8.81729 9.81729 8.08222 9.81729 7.17547C9.81729 6.26871 9.08222 5.53365 8.17547 5.53365ZM5.03365 7.17547C5.03365 5.44029 6.44029 4.03365 8.17547 4.03365C9.91065 4.03365 11.3173 5.44029 11.3173 7.17547C11.3173 8.91065 9.91065 10.3173 8.17547 10.3173C6.44029 10.3173 5.03365 8.91065 5.03365 7.17547Z" fill="#2B2B2B"/>
<path fill-rule="evenodd" clip-rule="evenodd" d="M16 12.5787C15.4878 12.8131 15.0316 13.159 14.631 13.5709C13.883 14.3403 13.2951 15.3709 12.8345 16.4572C11.9124 18.6319 11.4251 21.2116 11.2537 22.9254L12.7463 23.0746C12.9082 21.4551 13.3709 19.0348 14.2155 17.0428C14.6382 16.0458 15.1379 15.2014 15.7065 14.6166C15.8034 14.5169 15.9012 14.4258 16 14.3433V12.5787ZM19 14.3433C19.0988 14.4258 19.1966 14.5169 19.2935 14.6166C19.8621 15.2014 20.3618 16.0458 20.7845 17.0428C21.6291 19.0348 22.0918 21.4551 22.2537 23.0746L23.7463 22.9254C23.5749 21.2116 23.0876 18.6319 22.1655 16.4572C21.7049 15.3709 21.117 14.3403 20.369 13.5709C19.9684 13.159 19.5122 12.8131 19 12.5787V14.3433Z" fill="black"/>
<path fill-rule="evenodd" clip-rule="evenodd" d="M17 9.16162L17 8L18.0455 8L18.0455 9.16162L17 9.16162ZM17 13.8081L17 11.4848L18.0455 11.4848L18.0455 13.8081L17 13.8081ZM17 18.4545L17 16.1313L18.0455 16.1313L18.0455 18.4545L17 18.4545ZM17 21.9394L17 20.7778L18.0455 20.7778L18.0455 21.9394L17 21.9394Z" fill="black"/>
</svg>
