<svg width="24" height="24" viewBox="0 0 24 24" fill="none" xmlns="http://www.w3.org/2000/svg">
<path fill-rule="evenodd" clip-rule="evenodd" d="M4.3251 23.3616L2.0775 19.0005L3.41084 18.3133L5.65844 22.6744L4.3251 23.3616Z" fill="black"/>
<path fill-rule="evenodd" clip-rule="evenodd" d="M21.3333 14.8575L19.0857 10.4964L20.4191 9.80921L22.6667 14.1703L21.3333 14.8575Z" fill="black"/>
<path fill-rule="evenodd" clip-rule="evenodd" d="M4.03953 20.9621C3.85026 20.5937 3.99551 20.1415 4.36396 19.9523L20.3172 11.7573C20.6857 11.568 21.1378 11.7133 21.327 12.0817C21.5163 12.4502 21.3711 12.9023 21.0026 13.0915L5.04935 21.2865C4.6809 21.4758 4.22879 21.3305 4.03953 20.9621Z" fill="black"/>
<path fill-rule="evenodd" clip-rule="evenodd" d="M4.77828 4.52205C3.75053 5.31951 2.92698 6.28313 2.43652 6.92257L2.43343 6.9266L2.43341 6.92659C2.37796 6.99788 2.34795 7.08545 2.34795 7.17546C2.34795 7.26548 2.37796 7.35305 2.43341 7.42434L2.43653 7.42834L2.43652 7.42836C2.92698 8.0678 3.75053 9.03142 4.77828 9.82888C5.81444 10.6329 6.9819 11.2091 8.17557 11.2091C9.36924 11.2091 10.5367 10.6329 11.5729 9.82888C12.6005 9.03146 13.4241 8.0679 13.9145 7.42846C14.0322 7.27494 14.0327 7.07702 13.9143 6.92216C13.4238 6.28272 12.6004 5.31934 11.5729 4.52205C10.5367 3.71806 9.36924 3.14182 8.17557 3.14182C6.9819 3.14182 5.81444 3.71806 4.77828 4.52205ZM14.5096 6.46618L15.1048 6.00966C14.5737 5.3172 13.6609 4.24367 12.4924 3.33696C11.3323 2.43678 9.84345 1.64182 8.17557 1.64182C6.50768 1.64182 5.01886 2.43678 3.85873 3.33696C2.69119 4.2429 1.779 5.31537 1.24767 6.00789C0.988634 6.34194 0.847954 6.75264 0.847954 7.17546C0.847954 7.59829 0.988634 8.00899 1.24767 8.34304C1.779 9.03556 2.69119 10.108 3.85873 11.014C5.01886 11.9141 6.50768 12.7091 8.17557 12.7091C9.84345 12.7091 11.3323 11.9141 12.4924 11.014C13.6609 10.1073 14.5737 9.03373 15.1048 8.34127L15.1049 8.34116C15.6358 7.64871 15.6354 6.70274 15.1053 6.01023L14.5096 6.46618Z" fill="#2B2B2B"/>
<path fill-rule="evenodd" clip-rule="evenodd" d="M8.17547 5.53365C7.26871 5.53365 6.53365 6.26871 6.53365 7.17547C6.53365 8.08222 7.26871 8.81729 8.17547 8.81729C9.08222 8.81729 9.81729 8.08222 9.81729 7.17547C9.81729 6.26871 9.08222 5.53365 8.17547 5.53365ZM5.03365 7.17547C5.03365 5.44029 6.44029 4.03365 8.17547 4.03365C9.91065 4.03365 11.3173 5.44029 11.3173 7.17547C11.3173 8.91065 9.91065 10.3173 8.17547 10.3173C6.44029 10.3173 5.03365 8.91065 5.03365 7.17547Z" fill="#2B2B2B"/>
</svg>
