<svg width="24" height="24" viewBox="0 0 24 24" fill="none" xmlns="http://www.w3.org/2000/svg">
<path d="M12.0185 11.7801C14.5115 11.7801 16.5324 9.80664 16.5324 7.37226V4.25694H12.0185H7.50461V7.37226C7.50461 9.80664 9.52555 11.7801 12.0185 11.7801Z" stroke="#2B2B2B" stroke-width="1.5" stroke-linecap="round" stroke-linejoin="round"/>
<path d="M12.0185 9.70475C13.265 9.70475 14.2755 8.84949 14.2755 7.79448V6.20259H9.7616V7.79448C9.7616 8.84949 10.7721 9.70475 12.0185 9.70475Z" fill="#2B2B2B"/>
<path d="M12.0185 12.5065C9.52556 12.5065 7.50462 14.388 7.50462 16.7091L7.50462 20.0555L12.0185 20.0555L16.5324 20.0555L16.5324 16.7091C16.5324 14.388 14.5115 12.5065 12.0185 12.5065Z" stroke="#2B2B2B" stroke-width="1.5" stroke-linecap="round" stroke-linejoin="round"/>
<path d="M6 2H18.037" stroke="#2B2B2B" stroke-width="1.5" stroke-linecap="round"/>
<path d="M6 22.3125H18.037" stroke="#2B2B2B" stroke-width="1.5" stroke-linecap="round"/>
</svg>
