<svg width="36" height="32" viewBox="0 0 36 32" fill="none" xmlns="http://www.w3.org/2000/svg">
<path fill-rule="evenodd" clip-rule="evenodd" d="M17.7691 11.1445C18.1833 11.1445 18.5191 11.4802 18.5191 11.8945V18.9137C18.5191 19.3279 18.1833 19.6637 17.7691 19.6637C17.3549 19.6637 17.0191 19.3279 17.0191 18.9137V11.8945C17.0191 11.4802 17.3549 11.1445 17.7691 11.1445Z" fill="black"/>
<path fill-rule="evenodd" clip-rule="evenodd" d="M13.5095 15.4041C13.5095 14.9899 13.8453 14.6541 14.2595 14.6541L21.2787 14.6541C21.6929 14.6541 22.0287 14.9899 22.0287 15.4041C22.0287 15.8183 21.6929 16.1541 21.2787 16.1541L14.2595 16.1541C13.8453 16.1541 13.5095 15.8183 13.5095 15.4041Z" fill="black"/>
<g filter="url(#filter0_d_1850_25364)">
<path fill-rule="evenodd" clip-rule="evenodd" d="M27.5 21.1429V9.42857C27.5 9.23133 27.3401 9.07143 27.1429 9.07143H18.7657C17.8791 9.07143 17.0285 8.72073 16.3996 8.09586L14.8978 6.60378C14.8309 6.53731 14.7404 6.5 14.6461 6.5H8.85714C8.6599 6.5 8.5 6.6599 8.5 6.85714V21.1429C8.5 21.3401 8.6599 21.5 8.85714 21.5H27.1429C27.3401 21.5 27.5 21.3401 27.5 21.1429ZM8.85714 5C7.83147 5 7 5.83147 7 6.85714V21.1429C7 22.1685 7.83147 23 8.85714 23H27.1429C28.1685 23 29 22.1685 29 21.1429V9.42857C29 8.4029 28.1685 7.57143 27.1429 7.57143H18.7657C18.2753 7.57143 17.8047 7.37742 17.4568 7.03175L15.955 5.53967C15.607 5.19401 15.1365 5 14.6461 5H8.85714Z" fill="black"/>
</g>
<defs>
<filter id="filter0_d_1850_25364" x="0.5" y="0.357143" width="35" height="31" filterUnits="userSpaceOnUse" color-interpolation-filters="sRGB">
<feFlood flood-opacity="0" result="BackgroundImageFix"/>
<feColorMatrix in="SourceAlpha" type="matrix" values="0 0 0 0 0 0 0 0 0 0 0 0 0 0 0 0 0 0 127 0" result="hardAlpha"/>
<feOffset dy="1.85714"/>
<feGaussianBlur stdDeviation="3.25"/>
<feComposite in2="hardAlpha" operator="out"/>
<feColorMatrix type="matrix" values="0 0 0 0 0 0 0 0 0 0 0 0 0 0 0 0 0 0 0.1 0"/>
<feBlend mode="normal" in2="BackgroundImageFix" result="effect1_dropShadow_1850_25364"/>
<feBlend mode="normal" in="SourceGraphic" in2="effect1_dropShadow_1850_25364" result="shape"/>
</filter>
</defs>
</svg>
