<svg width="24" height="24" viewBox="0 0 24 24" fill="none" xmlns="http://www.w3.org/2000/svg">
<path fill-rule="evenodd" clip-rule="evenodd" d="M6.61538 10H3C1.89543 10 1 9.17767 1 8.16327V6.83674C1 5.82233 1.89543 5 3 5H10V6.5H3C2.82147 6.5 2.68408 6.56591 2.60039 6.64276C2.51884 6.71766 2.5 6.78727 2.5 6.83674V8.16327C2.5 8.21273 2.51884 8.28234 2.60039 8.35724C2.68408 8.43409 2.82147 8.5 3 8.5H5L6.61538 10ZM19 8.5L17.3846 10H21C22.1046 10 23 9.17767 23 8.16326V6.83673C23 5.82233 22.1046 5 21 5H14V6.5H21C21.1785 6.5 21.3159 6.56591 21.3996 6.64276C21.4812 6.71766 21.5 6.78727 21.5 6.83673V8.16326C21.5 8.21273 21.4812 8.28234 21.3996 8.35724C21.3159 8.43409 21.1785 8.5 21 8.5H19Z" fill="black"/>
<path fill-rule="evenodd" clip-rule="evenodd" d="M3.75 11V20C3.75 20.6904 4.30964 21.25 5 21.25H19C19.6904 21.25 20.25 20.6904 20.25 20V11H21.75V20C21.75 21.5188 20.5188 22.75 19 22.75H5C3.48122 22.75 2.25 21.5188 2.25 20V11H3.75Z" fill="black"/>
<path fill-rule="evenodd" clip-rule="evenodd" d="M12 1.25C12.4142 1.25 12.75 1.58579 12.75 2V12H11.25V2C11.25 1.58579 11.5858 1.25 12 1.25Z" fill="black"/>
<path fill-rule="evenodd" clip-rule="evenodd" d="M14 15.5H10C9.72386 15.5 9.5 15.7239 9.5 16C9.5 16.2761 9.72386 16.5 10 16.5H14C14.2761 16.5 14.5 16.2761 14.5 16C14.5 15.7239 14.2761 15.5 14 15.5ZM10 14C8.89543 14 8 14.8954 8 16C8 17.1046 8.89543 18 10 18H14C15.1046 18 16 17.1046 16 16C16 14.8954 15.1046 14 14 14H10Z" fill="black"/>
<path fill-rule="evenodd" clip-rule="evenodd" d="M7.43558 8.50612C7.70834 8.1944 8.18216 8.16281 8.49389 8.43557L12 11.5034L15.5061 8.43557C15.8179 8.16281 16.2917 8.1944 16.5644 8.50612C16.8372 8.81785 16.8056 9.29167 16.4939 9.56444L12 13.4966L7.50613 9.56444C7.1944 9.29167 7.16282 8.81785 7.43558 8.50612Z" fill="black"/>
</svg>
