<svg width="24" height="24" viewBox="0 0 24 24" fill="none" xmlns="http://www.w3.org/2000/svg">
<path fill-rule="evenodd" clip-rule="evenodd" d="M4.77829 4.52205C3.75054 5.31951 2.92699 6.28313 2.43653 6.92257L2.43343 6.9266L2.43342 6.92659C2.37797 6.99788 2.34796 7.08545 2.34796 7.17546C2.34796 7.26548 2.37797 7.35305 2.43342 7.42434L2.43654 7.42834L2.43653 7.42836C2.92699 8.0678 3.75054 9.03142 4.77829 9.82888C5.81444 10.6329 6.9819 11.2091 8.17557 11.2091C9.36924 11.2091 10.5367 10.6329 11.5729 9.82888C12.6006 9.03146 13.4241 8.0679 13.9145 7.42846C14.0322 7.27494 14.0327 7.07702 13.9143 6.92216C13.4238 6.28272 12.6004 5.31934 11.5729 4.52205C10.5367 3.71806 9.36924 3.14182 8.17557 3.14182C6.9819 3.14182 5.81444 3.71806 4.77829 4.52205ZM14.5096 6.46618L15.1048 6.00966C14.5737 5.3172 13.6609 4.24367 12.4924 3.33696C11.3323 2.43678 9.84346 1.64182 8.17557 1.64182C6.50769 1.64182 5.01887 2.43678 3.85874 3.33696C2.69119 4.2429 1.77901 5.31537 1.24768 6.00789C0.988642 6.34194 0.847961 6.75264 0.847961 7.17546C0.847961 7.59829 0.988642 8.00899 1.24768 8.34304C1.77901 9.03556 2.69119 10.108 3.85874 11.014C5.01887 11.9141 6.50769 12.7091 8.17557 12.7091C9.84346 12.7091 11.3323 11.9141 12.4924 11.014C13.6609 10.1073 14.5737 9.03373 15.1048 8.34127L15.1049 8.34116C15.6358 7.64871 15.6354 6.70274 15.1053 6.01023L14.5096 6.46618Z" fill="#2B2B2B"/>
<path fill-rule="evenodd" clip-rule="evenodd" d="M8.17547 5.53365C7.26871 5.53365 6.53365 6.26871 6.53365 7.17547C6.53365 8.08222 7.26871 8.81729 8.17547 8.81729C9.08222 8.81729 9.81729 8.08222 9.81729 7.17547C9.81729 6.26871 9.08222 5.53365 8.17547 5.53365ZM5.03365 7.17547C5.03365 5.44029 6.44029 4.03365 8.17547 4.03365C9.91065 4.03365 11.3173 5.44029 11.3173 7.17547C11.3173 8.91065 9.91065 10.3173 8.17547 10.3173C6.44029 10.3173 5.03365 8.91065 5.03365 7.17547Z" fill="#2B2B2B"/>
<path fill-rule="evenodd" clip-rule="evenodd" d="M13.8233 15.9498C13.3324 15.0633 12.8674 14.6815 12.2084 14.6819C11.7217 14.6823 11.2825 14.9389 10.9242 15.272C10.751 15.4331 10.6144 15.5961 10.5216 15.7187C10.4756 15.7794 10.4416 15.8286 10.4202 15.8607C10.4096 15.8767 10.4022 15.8883 10.3981 15.8947L10.3946 15.9003L10.3947 15.9001L10.3953 15.8991L10.3957 15.8985L10.396 15.8981C10.3961 15.8979 10.3962 15.8976 9.75246 15.5128C9.10871 15.128 9.10884 15.1278 9.10898 15.1275L9.10928 15.127L9.10995 15.1259L9.11155 15.1233L9.11584 15.1162L9.12876 15.0955C9.13928 15.0788 9.15365 15.0564 9.17178 15.0292C9.20797 14.9748 9.2595 14.9007 9.32568 14.8132C9.45718 14.6395 9.65116 14.4075 9.9029 14.1734C10.3946 13.7163 11.1832 13.1826 12.2075 13.1819C13.7022 13.181 14.5594 14.1826 15.1356 15.2231C15.4247 15.7452 15.6744 16.3317 15.9109 16.8909L15.9359 16.95L15.9359 16.95L15.9359 16.95C15.943 16.9667 15.95 16.9834 15.9571 17H14.3264C14.16 16.6167 13.9979 16.2649 13.8233 15.9498ZM15.8399 20C15.9325 20.1765 16.0241 20.357 16.1175 20.5412L16.1419 20.5891C16.3781 21.0546 16.6303 21.5484 16.9228 21.9885C17.5232 22.8921 18.3676 23.6731 19.7638 23.6724C20.7231 23.6719 21.481 23.2541 21.9764 22.8703C22.2267 22.6764 22.4208 22.483 22.5536 22.3369C22.6203 22.2635 22.6724 22.201 22.7092 22.1549C22.7277 22.1318 22.7424 22.1128 22.7532 22.0984L22.7666 22.0804L22.7711 22.0742L22.7729 22.0719L22.7736 22.0708L22.7739 22.0704C22.7741 22.0702 22.7742 22.07 22.2189 21.6716C21.6636 21.2733 21.6638 21.2731 21.6639 21.2729L21.6642 21.2726L21.6647 21.2719L21.6654 21.271L21.6627 21.2745C21.659 21.2794 21.6519 21.2886 21.6416 21.3016C21.6209 21.3275 21.5874 21.3678 21.542 21.4178C21.4504 21.5186 21.314 21.6545 21.1393 21.7898C20.7847 22.0645 20.3149 22.3054 19.7631 22.3057C19.0056 22.3061 18.5278 21.9344 18.0611 21.2321C17.825 20.8768 17.6114 20.4643 17.3756 20H15.8399Z" fill="black"/>
<path fill-rule="evenodd" clip-rule="evenodd" d="M8.33569 19H7V17.9749H8.33569V19ZM13.6785 19H11.0071V17.9749H13.6785V19ZM19.0212 19H16.3498V17.9749H19.0212V19ZM23.0283 19H21.6926V17.9749H23.0283V19Z" fill="black"/>
</svg>
