<svg width="24" height="24" viewBox="0 0 24 24" fill="none" xmlns="http://www.w3.org/2000/svg">
<path d="M2.74417 18.6569L4.99177 23.018" stroke="black" stroke-width="1.5"/>
<path d="M19.7524 10.1528L22 14.5139" stroke="black" stroke-width="1.5"/>
<path d="M4.70666 20.6194L20.6599 12.4244" stroke="black" stroke-width="1.5" stroke-linecap="round"/>
<path d="M14.368 7.83837C14.6785 8.24395 14.6785 8.79148 14.368 9.19641C13.3901 10.4714 11.0439 13.0965 8.30466 13.0965C5.56543 13.0965 3.21921 10.4714 2.24129 9.19641C2.09024 9.00221 2.00824 8.7633 2.00824 8.51739C2.00824 8.27147 2.09024 8.03257 2.24129 7.83837C3.21921 6.5634 5.56543 3.93825 8.30466 3.93825C11.0439 3.93825 13.3901 6.5634 14.368 7.83837V7.83837Z" stroke="#2B2B2B" stroke-width="1.5" stroke-linecap="round" stroke-linejoin="round"/>
<path d="M8.30455 10.807C9.56905 10.807 10.5941 9.78188 10.5941 8.51739C10.5941 7.2529 9.56905 6.22782 8.30455 6.22782C7.04006 6.22782 6.01498 7.2529 6.01498 8.51739C6.01498 9.78188 7.04006 10.807 8.30455 10.807Z" stroke="#2B2B2B" stroke-width="1.5" stroke-linecap="round" stroke-linejoin="round"/>
</svg>
