<svg width="24" height="24" viewBox="0 0 24 24" fill="none" xmlns="http://www.w3.org/2000/svg">
<path fill-rule="evenodd" clip-rule="evenodd" d="M5.54657 5.54659C5.83947 5.2537 6.31434 5.2537 6.60723 5.54659L18.4534 17.3927C18.7463 17.6856 18.7463 18.1605 18.4534 18.4534C18.1605 18.7463 17.6856 18.7463 17.3927 18.4534L5.54657 6.60725C5.25368 6.31436 5.25368 5.83948 5.54657 5.54659Z" fill="#2B2B2B"/>
<path fill-rule="evenodd" clip-rule="evenodd" d="M5.54657 18.4534C5.25368 18.1605 5.25368 17.6856 5.54657 17.3927L17.3927 5.54659C17.6856 5.2537 18.1605 5.2537 18.4534 5.54659C18.7463 5.83948 18.7463 6.31436 18.4534 6.60725L6.60723 18.4534C6.31434 18.7463 5.83947 18.7463 5.54657 18.4534Z" fill="#2B2B2B"/>
<path fill-rule="evenodd" clip-rule="evenodd" d="M21 2.5H3C2.72386 2.5 2.5 2.72386 2.5 3V21C2.5 21.2761 2.72386 21.5 3 21.5H21C21.2761 21.5 21.5 21.2761 21.5 21V3C21.5 2.72386 21.2761 2.5 21 2.5ZM3 1C1.89543 1 1 1.89543 1 3V21C1 22.1046 1.89543 23 3 23H21C22.1046 23 23 22.1046 23 21V3C23 1.89543 22.1046 1 21 1H3Z" fill="black"/>
</svg>
