<svg width="24" height="24" viewBox="0 0 24 24" fill="none" xmlns="http://www.w3.org/2000/svg">
<path fill-rule="evenodd" clip-rule="evenodd" d="M6.75461 4.25694C6.75461 3.84273 7.09039 3.50694 7.50461 3.50694H16.5324C16.9466 3.50694 17.2824 3.84273 17.2824 4.25694V7.37226C17.2824 10.2376 14.9088 12.5301 12.0185 12.5301C9.12824 12.5301 6.75461 10.2376 6.75461 7.37226V4.25694ZM8.25461 5.00694V7.37226C8.25461 9.37572 9.92285 11.0301 12.0185 11.0301C14.1142 11.0301 15.7824 9.37572 15.7824 7.37226V5.00694H8.25461Z" fill="#2B2B2B"/>
<path d="M12.0185 9.70475C13.265 9.70475 14.2755 8.84949 14.2755 7.79448V6.20259H9.7616V7.79448C9.7616 8.84949 10.7721 9.70475 12.0185 9.70475Z" fill="#2B2B2B"/>
<path fill-rule="evenodd" clip-rule="evenodd" d="M17.0627 20.5858C16.9221 20.7264 16.7313 20.8055 16.5324 20.8055L7.50462 20.8055C7.09041 20.8055 6.75462 20.4697 6.75462 20.0555L6.75462 16.7091C6.75462 13.9242 9.16273 11.7565 12.0185 11.7565C14.8743 11.7565 17.2824 13.9242 17.2824 16.7091L17.2824 20.0555C17.2824 20.2544 17.2034 20.4451 17.0627 20.5858ZM15.7824 19.3055L15.7824 16.7091C15.7824 14.8518 14.1486 13.2565 12.0185 13.2565C9.8884 13.2565 8.25462 14.8518 8.25462 16.7091L8.25462 19.3055L15.7824 19.3055Z" fill="#2B2B2B"/>
<path fill-rule="evenodd" clip-rule="evenodd" d="M5.25 2C5.25 1.58579 5.58579 1.25 6 1.25H18.037C18.4513 1.25 18.787 1.58579 18.787 2C18.787 2.41421 18.4513 2.75 18.037 2.75H6C5.58579 2.75 5.25 2.41421 5.25 2Z" fill="#2B2B2B"/>
<path fill-rule="evenodd" clip-rule="evenodd" d="M5.25 22.3125C5.25 21.8983 5.58579 21.5625 6 21.5625H18.037C18.4513 21.5625 18.787 21.8983 18.787 22.3125C18.787 22.7267 18.4513 23.0625 18.037 23.0625H6C5.58579 23.0625 5.25 22.7267 5.25 22.3125Z" fill="#2B2B2B"/>
</svg>
