<svg width="36" height="32" viewBox="0 0 36 32" fill="none" xmlns="http://www.w3.org/2000/svg">
<path d="M18.5191 11.8945C18.5191 11.4802 18.1833 11.1445 17.7691 11.1445C17.3549 11.1445 17.0191 11.4802 17.0191 11.8945H18.5191ZM17.0191 18.9137C17.0191 19.3279 17.3549 19.6637 17.7691 19.6637C18.1833 19.6637 18.5191 19.3279 18.5191 18.9137H17.0191ZM17.0191 11.8945V18.9137H18.5191V11.8945H17.0191Z" fill="black"/>
<path d="M14.2595 14.6541C13.8453 14.6541 13.5095 14.9899 13.5095 15.4041C13.5095 15.8183 13.8453 16.1541 14.2595 16.1541L14.2595 14.6541ZM21.2787 16.1541C21.6929 16.1541 22.0287 15.8183 22.0287 15.4041C22.0287 14.9899 21.6929 14.6541 21.2787 14.6541L21.2787 16.1541ZM14.2595 16.1541L21.2787 16.1541L21.2787 14.6541L14.2595 14.6541L14.2595 16.1541Z" fill="black"/>
<g filter="url(#filter0_d_1850_25364)">
<path d="M28.25 9.42857V21.1429C28.25 21.7543 27.7543 22.25 27.1429 22.25H8.85714C8.24569 22.25 7.75 21.7543 7.75 21.1429V6.85714C7.75 6.24568 8.24568 5.75 8.85714 5.75H14.6461C14.9384 5.75 15.2189 5.86566 15.4264 6.07173L16.9282 7.56381C17.4166 8.04907 18.0772 8.32143 18.7657 8.32143H27.1429C27.7543 8.32143 28.25 8.81711 28.25 9.42857Z" stroke="black" stroke-width="1.5" shape-rendering="crispEdges"/>
</g>
<defs>
<filter id="filter0_d_1850_25364" x="0.5" y="0.357143" width="35" height="31" filterUnits="userSpaceOnUse" color-interpolation-filters="sRGB">
<feFlood flood-opacity="0" result="BackgroundImageFix"/>
<feColorMatrix in="SourceAlpha" type="matrix" values="0 0 0 0 0 0 0 0 0 0 0 0 0 0 0 0 0 0 127 0" result="hardAlpha"/>
<feOffset dy="1.85714"/>
<feGaussianBlur stdDeviation="3.25"/>
<feComposite in2="hardAlpha" operator="out"/>
<feColorMatrix type="matrix" values="0 0 0 0 0 0 0 0 0 0 0 0 0 0 0 0 0 0 0.1 0"/>
<feBlend mode="normal" in2="BackgroundImageFix" result="effect1_dropShadow_1850_25364"/>
<feBlend mode="normal" in="SourceGraphic" in2="effect1_dropShadow_1850_25364" result="shape"/>
</filter>
</defs>
</svg>
