<svg width="200" height="200" viewBox="0 0 200 200" fill="none" xmlns="http://www.w3.org/2000/svg">
<path d="M66.1521 101.921V83.1525C66.1521 78.901 69.8881 75.4551 74.4881 75.4551H128.552C133.16 75.4551 136.888 78.901 136.888 83.1525V102.033" stroke="#2B2B2B" stroke-width="6.1307" stroke-miterlimit="10" stroke-linecap="round"/>
<path d="M82.52 100.948L94.52 112.913L117.464 90.0363" stroke="#CAFC81" stroke-width="9.3462" stroke-miterlimit="10" stroke-linecap="round"/>
<path d="M43.368 85.9124L94.696 36.8166C98.392 32.9879 104.56 33.0756 108.152 37.0001L159.864 90.4829C163.248 93.9767 162.424 99.7198 158.192 102.129L105.296 134.139C101.968 136.037 97.84 135.862 94.688 133.692L47.72 103.612C42.76 100.198 36 103.74 36 109.746V155.061C36 160.549 40.464 165 45.968 165H154.032C159.536 165 164 160.549 164 155.061V117.874" stroke="#2B2B2B" stroke-width="6.1307" stroke-miterlimit="10" stroke-linecap="round"/>
</svg>
