<svg width="200" height="200" viewBox="0 0 200 200" fill="none" xmlns="http://www.w3.org/2000/svg">
<path d="M73.15 113.846L56 174.786C35.92 161.006 21.42 139.126 18 113.866L73.15 113.846Z" fill="#CAFC81"/>
<path d="M46.1501 101.846C46.1682 89.1895 50.2606 76.8751 57.8215 66.7253C65.3825 56.5755 76.0104 49.1296 88.1321 45.4897C100.254 41.8497 113.226 42.2091 125.127 46.5147C137.029 50.8202 147.228 58.8431 154.215 69.396C161.203 79.9489 164.607 92.471 163.924 105.109C163.241 117.747 158.508 129.83 150.424 139.568C142.341 149.307 131.337 156.184 119.04 159.183C106.744 162.181 93.8092 161.141 82.1501 156.216L92.1501 117.846C84.7901 112.106 81.3301 101.606 86.3001 91.0159C88.1288 87.1176 91.258 83.9778 95.1501 82.1359C111.03 74.6659 126.6 86.0359 126.6 101.076C126.605 104.311 125.869 107.504 124.45 110.411C123.03 113.317 120.964 115.861 118.41 117.846L122.84 133.846H101.15" stroke="#272223" stroke-width="9" stroke-miterlimit="10"/>
</svg>
