<svg width="200" height="200" viewBox="0 0 200 200" fill="none" xmlns="http://www.w3.org/2000/svg">
<path d="M36.11 170.915C36.11 153.846 42.8908 137.475 54.9606 125.406C67.0304 113.336 83.4007 106.555 100.47 106.555C117.539 106.555 133.91 113.336 145.979 125.406C158.049 137.475 164.83 153.846 164.83 170.915L67.47 143.255" stroke="#272223" stroke-width="9" stroke-miterlimit="10"/>
<path d="M100.66 92.995C116.914 92.995 130.09 79.8187 130.09 63.565C130.09 47.3113 116.914 34.135 100.66 34.135C84.4062 34.135 71.23 47.3113 71.23 63.565C71.23 79.8187 84.4062 92.995 100.66 92.995Z" stroke="#272223" stroke-width="9" stroke-miterlimit="10"/>
<path d="M184.94 30.005C180.355 29.927 175.801 30.7626 171.543 32.4631C167.284 34.1636 163.407 36.695 160.137 39.9096C156.868 43.1242 154.271 46.9577 152.498 51.1865C150.725 55.4153 149.812 59.9547 149.812 64.54C149.812 69.1253 150.725 73.6647 152.498 77.8935C154.271 82.1223 156.868 85.9558 160.137 89.1704C163.407 92.385 167.284 94.9164 171.543 96.6169C175.801 98.3174 180.355 99.153 184.94 99.075V30.005Z" fill="#C8FA80"/>
<path d="M16 99.075C20.5847 99.153 25.1389 98.3174 29.3973 96.6169C33.6556 94.9164 37.5327 92.385 40.8025 89.1704C44.0723 85.9558 46.6692 82.1223 48.442 77.8935C50.2147 73.6647 51.1277 69.1253 51.1277 64.54C51.1277 59.9547 50.2147 55.4153 48.442 51.1865C46.6692 46.9577 44.0723 43.1242 40.8025 39.9096C37.5327 36.695 33.6556 34.1636 29.3973 32.4631C25.1389 30.7626 20.5847 29.927 16 30.005V99.075Z" fill="#C8FA80"/>
</svg>
