<svg width="24" height="24" viewBox="0 0 24 24" fill="none" xmlns="http://www.w3.org/2000/svg">
<path d="M14.7784 6.74624C15.1092 7.17836 15.1092 7.76172 14.7784 8.19315C13.7365 9.55154 11.2368 12.3485 8.31829 12.3485C5.39982 12.3485 2.90006 9.55154 1.85815 8.19315C1.69721 7.98624 1.60985 7.7317 1.60985 7.46969C1.60985 7.20769 1.69721 6.95315 1.85815 6.74624C2.90006 5.38784 5.39982 2.5909 8.31829 2.5909C11.2368 2.5909 13.7365 5.38784 14.7784 6.74624V6.74624Z" stroke="#2B2B2B" stroke-width="1.5" stroke-linecap="round" stroke-linejoin="round"/>
<path d="M8.31818 9.90909C9.66542 9.90909 10.7576 8.81694 10.7576 7.4697C10.7576 6.12246 9.66542 5.0303 8.31818 5.0303C6.97094 5.0303 5.87878 6.12246 5.87878 7.4697C5.87878 8.81694 6.97094 9.90909 8.31818 9.90909Z" stroke="#2B2B2B" stroke-width="1.5" stroke-linecap="round" stroke-linejoin="round"/>
<path fill-rule="evenodd" clip-rule="evenodd" d="M16 12.5787C15.4878 12.8131 15.0316 13.159 14.631 13.5709C13.883 14.3403 13.2951 15.3709 12.8345 16.4572C11.9124 18.6319 11.4251 21.2116 11.2537 22.9254L12.7463 23.0746C12.9082 21.4551 13.3709 19.0348 14.2155 17.0428C14.6382 16.0458 15.1379 15.2014 15.7065 14.6166C15.8034 14.5169 15.9012 14.4258 16 14.3433V12.5787ZM19 14.3433C19.0988 14.4258 19.1966 14.5169 19.2935 14.6166C19.8621 15.2014 20.3618 16.0458 20.7845 17.0428C21.6291 19.0348 22.0918 21.4551 22.2537 23.0746L23.7463 22.9254C23.5749 21.2116 23.0876 18.6319 22.1655 16.4572C21.7049 15.3709 21.117 14.3403 20.369 13.5709C19.9684 13.159 19.5122 12.8131 19 12.5787V14.3433Z" fill="black"/>
<line x1="17.5227" y1="8" x2="17.5227" y2="21.9394" stroke="black" stroke-width="1.04545" stroke-dasharray="2.79 2.79"/>
</svg>
