<svg width="24" height="24" viewBox="0 0 24 24" fill="none" xmlns="http://www.w3.org/2000/svg">
<path fill-rule="evenodd" clip-rule="evenodd" d="M6.61538 10H3C1.89543 10 1 9.17767 1 8.16327V6.83674C1 5.82233 1.89543 5 3 5H10V6.5H3C2.82147 6.5 2.68408 6.56591 2.60039 6.64276C2.51884 6.71766 2.5 6.78727 2.5 6.83674V8.16327C2.5 8.21273 2.51884 8.28234 2.60039 8.35724C2.68408 8.43409 2.82147 8.5 3 8.5H5L6.61538 10ZM19 8.5L17.3846 10H21C22.1046 10 23 9.17767 23 8.16326V6.83673C23 5.82233 22.1046 5 21 5H14V6.5H21C21.1785 6.5 21.3159 6.56591 21.3996 6.64276C21.4812 6.71766 21.5 6.78727 21.5 6.83673V8.16326C21.5 8.21273 21.4812 8.28234 21.3996 8.35724C21.3159 8.43409 21.1785 8.5 21 8.5H19Z" fill="black"/>
<path d="M3 11V20C3 21.1046 3.89543 22 5 22H19C20.1046 22 21 21.1046 21 20V11" stroke="black" stroke-width="1.5"/>
<path d="M12.75 2C12.75 1.58579 12.4142 1.25 12 1.25C11.5858 1.25 11.25 1.58579 11.25 2H12.75ZM11.25 2V12H12.75V2H11.25Z" fill="black"/>
<rect x="8.75" y="14.75" width="6.5" height="2.5" rx="1.25" stroke="black" stroke-width="1.5"/>
<path d="M8 9L12 12.5L16 9" stroke="black" stroke-width="1.5" stroke-linecap="round"/>
</svg>
