<?xml version="1.0" encoding="utf-8"?>
<!-- Generator: Adobe Illustrator 26.0.1, SVG Export Plug-In . SVG Version: 6.00 Build 0)  -->
<svg version="1.1" id="Layer_1" xmlns="http://www.w3.org/2000/svg" xmlns:xlink="http://www.w3.org/1999/xlink" x="0px" y="0px"
	 viewBox="0 0 1080 1080" style="enable-background:new 0 0 1080 1080;" xml:space="preserve">
<style type="text/css">
	.st0{fill:#2B2B2B;}
	.st1{fill:#CDD8E1;}
	.st2{fill:url(#SVGID_1_);}
	.st3{fill:url(#SVGID_00000023274257861125629490000010170264745644395913_);}
	.st4{fill:url(#SVGID_00000181791919346438355350000004858361551008527032_);}
	.st5{fill:url(#SVGID_00000071538963563112783100000016412331351643749799_);}
</style>
<g>
	<circle class="st0" cx="551.4" cy="534.1" r="104.2"/>
	<g>
		<g>
			<path class="st1" d="M801.8,124.8v-12.7L408.5,214.2l4.9,19l368.4-95.6l19.9-5.7C801.8,129.6,801.8,127.2,801.8,124.8z"/>
			<linearGradient id="SVGID_1_" gradientUnits="userSpaceOnUse" x1="278.1689" y1="255.742" x2="801.7307" y2="255.742">
				<stop  offset="0" style="stop-color:#C9FB80"/>
				<stop  offset="0.2208" style="stop-color:#DBF8AF"/>
				<stop  offset="0.4306" style="stop-color:#EAF5D5"/>
				<stop  offset="0.5986" style="stop-color:#F3F4EC"/>
				<stop  offset="0.7039" style="stop-color:#F6F3F5"/>
				<stop  offset="0.7861" style="stop-color:#EAEBEF"/>
				<stop  offset="0.924" style="stop-color:#CDD7E1"/>
			</linearGradient>
			<path class="st2" d="M781.9,137.6c-3.1,59.9-27.9,115.8-70.6,158.5C665.5,341.8,604.7,367,540,367s-125.5-25.2-171.3-70.9
				c-45.7-45.7-70.9-106.6-70.9-171.3h-19.6c0,69.9,27.2,135.7,76.7,185.1s115.2,76.7,185.1,76.7s135.7-27.2,185.1-76.7
				c47.8-47.8,74.8-110.8,76.6-178L781.9,137.6z"/>
		</g>
		<g>
			<circle class="st0" cx="414.8" cy="221.8" r="18.2"/>
		</g>
	</g>
	<g>
		<g>
			<path class="st1" d="M131.3,272.3h-12.7l102.1,393.3l19-4.9l-95.6-368.4l-5.7-19.9C136,272.3,133.7,272.3,131.3,272.3z"/>
			
				<linearGradient id="SVGID_00000121242961607403685450000002747304697226792324_" gradientUnits="userSpaceOnUse" x1="-20.138" y1="647.8652" x2="503.4238" y2="647.8652" gradientTransform="matrix(6.123234e-17 -1 1 6.123234e-17 -385.6464 775.8057)">
				<stop  offset="0" style="stop-color:#C9FB80"/>
				<stop  offset="0.2208" style="stop-color:#DBF8AF"/>
				<stop  offset="0.4306" style="stop-color:#EAF5D5"/>
				<stop  offset="0.5986" style="stop-color:#F3F4EC"/>
				<stop  offset="0.7039" style="stop-color:#F6F3F5"/>
				<stop  offset="0.7861" style="stop-color:#EAEBEF"/>
				<stop  offset="0.924" style="stop-color:#CDD7E1"/>
			</linearGradient>
			<path style="fill:url(#SVGID_00000121242961607403685450000002747304697226792324_);" d="M144.1,292.2
				c59.9,3.1,115.8,27.9,158.5,70.6c45.7,45.7,70.9,106.6,70.9,171.3s-25.2,125.5-70.9,171.3c-45.7,45.7-106.6,70.9-171.3,70.9v19.6
				c69.9,0,135.7-27.2,185.1-76.7s76.7-115.2,76.7-185.1S365.9,398.4,316.4,349c-47.8-47.8-110.8-74.8-178-76.6L144.1,292.2z"/>
		</g>
		<g>
			<circle class="st0" cx="228.3" cy="659.3" r="18.2"/>
		</g>
	</g>
	<g>
		<g>
			<path class="st1" d="M278.2,955.2v12.7l393.3-102.1l-4.9-19l-368.4,95.6l-19.9,5.7C278.2,950.4,278.2,952.8,278.2,955.2z"/>
			
				<linearGradient id="SVGID_00000000223227894105371770000014959491857259210914_" gradientUnits="userSpaceOnUse" x1="703.6866" y1="622.3673" x2="1227.2484" y2="622.3673" gradientTransform="matrix(-1 0 0 -1 1505.5177 1446.6254)">
				<stop  offset="0" style="stop-color:#C9FB80"/>
				<stop  offset="0.2208" style="stop-color:#DBF8AF"/>
				<stop  offset="0.4306" style="stop-color:#EAF5D5"/>
				<stop  offset="0.5986" style="stop-color:#F3F4EC"/>
				<stop  offset="0.7039" style="stop-color:#F6F3F5"/>
				<stop  offset="0.7861" style="stop-color:#EAEBEF"/>
				<stop  offset="0.924" style="stop-color:#CDD7E1"/>
			</linearGradient>
			<path style="fill:url(#SVGID_00000000223227894105371770000014959491857259210914_);" d="M298.1,942.4
				c3.1-59.9,27.9-115.8,70.6-158.5C414.5,738.2,475.3,713,540,713s125.5,25.2,171.3,70.9c45.7,45.7,70.9,106.6,70.9,171.3h19.6
				c0-69.9-27.2-135.7-76.7-185.1S609.9,693.3,540,693.3S404.3,720.6,354.9,770c-47.8,47.8-74.8,110.8-76.6,178L298.1,942.4z"/>
		</g>
		<g>
			<circle class="st0" cx="665.2" cy="858.2" r="18.2"/>
		</g>
	</g>
	<g>
		<g>
			<path class="st1" d="M948.7,807.7h12.7L859.3,414.4l-19,4.9l95.6,368.4l5.7,19.9C944,807.7,946.3,807.7,948.7,807.7z"/>
			
				<linearGradient id="SVGID_00000183966291604889144850000015714783238607151802_" gradientUnits="userSpaceOnUse" x1="-386.7633" y1="1073.3828" x2="136.7985" y2="1073.3828" gradientTransform="matrix(-6.123234e-17 1 -1 -6.123234e-17 1891.1641 670.8197)">
				<stop  offset="0" style="stop-color:#C9FB80"/>
				<stop  offset="0.2208" style="stop-color:#DBF8AF"/>
				<stop  offset="0.4306" style="stop-color:#EAF5D5"/>
				<stop  offset="0.5986" style="stop-color:#F3F4EC"/>
				<stop  offset="0.7039" style="stop-color:#F6F3F5"/>
				<stop  offset="0.7861" style="stop-color:#EAEBEF"/>
				<stop  offset="0.924" style="stop-color:#CDD7E1"/>
			</linearGradient>
			<path style="fill:url(#SVGID_00000183966291604889144850000015714783238607151802_);" d="M935.9,787.8
				c-59.9-3.1-115.8-27.9-158.5-70.6c-45.7-45.7-70.9-106.6-70.9-171.3s25.2-125.5,70.9-171.3c45.7-45.7,106.6-70.9,171.3-70.9
				v-19.6c-69.9,0-135.7,27.2-185.1,76.7s-76.7,115.2-76.7,185.1s27.2,135.7,76.7,185.1c47.8,47.8,110.8,74.8,178,76.6L935.9,787.8z
				"/>
		</g>
		<g>
			<circle class="st0" cx="851.7" cy="420.7" r="18.2"/>
		</g>
	</g>
</g>
</svg>
