<?xml version="1.0" encoding="utf-8"?>
<!-- Generator: Adobe Illustrator 25.3.1, SVG Export Plug-In . SVG Version: 6.00 Build 0)  -->
<svg version="1.1" id="Layer_1" xmlns="http://www.w3.org/2000/svg" xmlns:xlink="http://www.w3.org/1999/xlink" x="0px" y="0px"
	 viewBox="0 0 1080 1080" style="enable-background:new 0 0 1080 1080;" xml:space="preserve">
<style type="text/css">
	.st0{fill:none;stroke:url(#SVGID_1_);stroke-width:19.6329;stroke-miterlimit:10;}
	.st1{fill:#2B2B2B;}
	.st2{fill:none;stroke:url(#SVGID_2_);stroke-width:19.6329;stroke-miterlimit:10;}
</style>
<g>
	<g>
		
			<linearGradient id="SVGID_1_" gradientUnits="userSpaceOnUse" x1="5374.4805" y1="-3853.0144" x2="6060.1562" y2="-3853.0144" gradientTransform="matrix(0.7071 0.7071 -0.7071 0.7071 -6230.5923 -764.7747)">
			<stop  offset="0" style="stop-color:#C9FB80"/>
			<stop  offset="0.4632" style="stop-color:#F6F3F5"/>
			<stop  offset="0.6538" style="stop-color:#CDD7E1"/>
		</linearGradient>
		<path class="st0" d="M824.2,376.3c78.6,128.3,62.4,298.2-48.7,409.3c-130.1,130.1-340.9,130.1-471,0s-130.1-340.9,0-471
			c65-65,150.1-97.5,235.3-97.5"/>
		<circle class="st1" cx="539.5" cy="217.7" r="20.9"/>
	</g>
	<g>
		<path class="st1" d="M595.4,583.4l8.2,75.6c1,8.8-6,16.6-14.9,16.6H480.4c-8.9,0-15.8-7.7-14.9-16.6l8.2-75.6
			c-23.1-18-37.9-46.1-37.9-77.7c0-54.6,44.2-98.7,98.7-98.7c54.5,0,98.7,44.2,98.7,98.7C633.3,537.3,618.5,565.4,595.4,583.4z"/>
	</g>
	<g>
		
			<linearGradient id="SVGID_2_" gradientUnits="userSpaceOnUse" x1="4803.1143" y1="-2703.4512" x2="5274.3301" y2="-2703.4512" gradientTransform="matrix(1.490636e-02 -0.9999 0.9999 1.490636e-02 3168.5137 5616.0674)">
			<stop  offset="0" style="stop-color:#C9FB80"/>
			<stop  offset="0.4632" style="stop-color:#F6F3F5"/>
			<stop  offset="0.6538" style="stop-color:#CDD7E1"/>
		</linearGradient>
		<path class="st2" d="M318.5,481.4c25.3-98.8,115.6-171.2,222.1-169.6c124.7,1.9,224.3,104.4,222.4,229.1
			c-1.9,124.7-104.4,224.3-229.1,222.4c-62.3-0.9-118.3-27-158.6-68.4"/>
		<circle class="st1" cx="375.7" cy="694.8" r="38.5"/>
	</g>
</g>
</svg>
