<svg width="168" height="172" viewBox="0 0 168 172" fill="none" xmlns="http://www.w3.org/2000/svg">
<path d="M41.6899 89.1511V65.6211C41.6899 60.2911 46.3599 55.9711 52.1099 55.9711H119.69C125.45 55.9711 130.11 60.2911 130.11 65.6211V89.2911" stroke="#2B2B2B" stroke-width="6.1307" stroke-miterlimit="10" stroke-linecap="round"/>
<path d="M62.1499 87.9311L77.1499 102.931L105.83 74.2511" stroke="#CAFC81" stroke-width="9.3462" stroke-miterlimit="10" stroke-linecap="round"/>
<path d="M13.21 69.0811L77.37 7.53112C81.99 2.73112 89.7 2.84111 94.19 7.76111L158.83 74.8111C163.06 79.1911 162.03 86.3911 156.74 89.4111L90.62 129.541C86.46 131.921 81.3 131.701 77.36 128.981L18.65 91.2711C12.45 86.9911 4 91.4311 4 98.9611V155.771C4 162.651 9.58 168.231 16.46 168.231H151.54C158.42 168.231 164 162.651 164 155.771V109.151" stroke="#2B2B2B" stroke-width="6.1307" stroke-miterlimit="10" stroke-linecap="round"/>
</svg>
