<?xml version="1.0" encoding="utf-8"?>
<!-- Generator: Adobe Illustrator 25.3.1, SVG Export Plug-In . SVG Version: 6.00 Build 0)  -->
<svg version="1.1" id="Layer_1" xmlns="http://www.w3.org/2000/svg" xmlns:xlink="http://www.w3.org/1999/xlink" x="0px" y="0px"
	 viewBox="0 0 2176.2 1928.1" style="enable-background:new 0 0 2176.2 1928.1;" xml:space="preserve">
<style type="text/css">
	.st0{fill:none;stroke:url(#SVGID_1_);stroke-width:20.205;stroke-miterlimit:10;}
	.st1{fill:none;stroke:url(#SVGID_2_);stroke-width:20.205;stroke-miterlimit:10;}
	.st2{fill:none;stroke:url(#SVGID_3_);stroke-width:20.205;stroke-miterlimit:10;}
	.st3{fill:none;stroke:url(#SVGID_4_);stroke-width:20.205;stroke-miterlimit:10;}
	.st4{fill:none;stroke:url(#SVGID_5_);stroke-width:17.5646;stroke-miterlimit:10;}
	.st5{fill:none;stroke:url(#SVGID_6_);stroke-width:20.205;stroke-miterlimit:10;}
	.st6{fill:#2B2B2B;}
	.st7{fill:#F2CEC7;}
	.st8{fill:#CDD7E1;}
</style>
<g>
	<g>
		<linearGradient id="SVGID_1_" gradientUnits="userSpaceOnUse" x1="1062.5399" y1="1336.5704" x2="1429.317" y2="969.7933">
			<stop  offset="0" style="stop-color:#C9FB80"/>
			<stop  offset="0.4632" style="stop-color:#F6F3F5"/>
			<stop  offset="0.6538" style="stop-color:#CDD7E1"/>
		</linearGradient>
		<path class="st0" d="M1115.4,1379.3c0-194,122.5-359.4,294.3-423.2"/>
		<linearGradient id="SVGID_2_" gradientUnits="userSpaceOnUse" x1="878.9794" y1="1319.557" x2="1504.6306" y2="693.9059">
			<stop  offset="0" style="stop-color:#C9FB80"/>
			<stop  offset="0.4632" style="stop-color:#F6F3F5"/>
			<stop  offset="0.6538" style="stop-color:#CDD7E1"/>
		</linearGradient>
		<path class="st1" d="M948.8,1379.3c0-340,275.6-615.5,615.5-615.5"/>
		<linearGradient id="SVGID_3_" gradientUnits="userSpaceOnUse" x1="700.3864" y1="1303.0098" x2="1331.9579" y2="671.4382">
			<stop  offset="0" style="stop-color:#C9FB80"/>
			<stop  offset="0.4632" style="stop-color:#F6F3F5"/>
			<stop  offset="0.6538" style="stop-color:#CDD7E1"/>
		</linearGradient>
		<path class="st2" d="M786.8,1379.3c0-337.3,215.3-624.2,516-730.9"/>
		<linearGradient id="SVGID_4_" gradientUnits="userSpaceOnUse" x1="619.9519" y1="1179.946" x2="1470.6271" y2="329.2709">
			<stop  offset="0" style="stop-color:#C9FB80"/>
			<stop  offset="0.4632" style="stop-color:#F6F3F5"/>
			<stop  offset="0.6538" style="stop-color:#CDD7E1"/>
		</linearGradient>
		<path class="st3" d="M638.8,1190.9c86.4-432.2,468-757.8,925.6-757.8"/>
		<linearGradient id="SVGID_5_" gradientUnits="userSpaceOnUse" x1="1090.5673" y1="520.9214" x2="1462.114" y2="149.3746">
			<stop  offset="0" style="stop-color:#C9FB80"/>
			<stop  offset="0.4632" style="stop-color:#F6F3F5"/>
			<stop  offset="0.6538" style="stop-color:#CDD7E1"/>
		</linearGradient>
		<path class="st4" d="M988.9,416.2c167.8-100.2,364-157.7,573.6-157.7"/>
		<linearGradient id="SVGID_6_" gradientUnits="userSpaceOnUse" x1="319.611" y1="1267.2424" x2="903.6123" y2="683.2411">
			<stop  offset="0" style="stop-color:#C9FB80"/>
			<stop  offset="0.4632" style="stop-color:#F6F3F5"/>
			<stop  offset="0.6538" style="stop-color:#CDD7E1"/>
		</linearGradient>
		<path class="st5" d="M441.8,1379.3c0-318.9,133.2-606.6,346.9-810.7"/>
		<g>
			<circle class="st6" cx="638" cy="1191.6" r="22.5"/>
		</g>
		<g>
			<circle class="st6" cx="792.2" cy="565.3" r="22.5"/>
		</g>
		<g>
			<circle class="st6" cx="1311" cy="641.7" r="22.5"/>
		</g>
		<circle class="st6" cx="1225.1" cy="1043.9" r="47.6"/>
		<g>
			<g>
				<polygon class="st6" points="1271.7,1606.9 1325.4,1606.9 1334.5,1562.3 1298.1,1562.3 1273.6,1597.7 				"/>
				<polygon class="st6" points="1355.1,1562.3 1357.6,1607 1335.9,1607 1333.3,1562.3 				"/>
			</g>
			<g>
				<polygon class="st6" points="1536,1606.9 1482.4,1606.9 1473.3,1562.3 1509.6,1562.3 1534.1,1597.7 				"/>
				<polygon class="st6" points="1452.7,1562.3 1450.1,1607 1471.9,1607 1474.4,1562.3 				"/>
			</g>
			<path class="st6" d="M1308.5,1009.6c-2.4-2.8-5.5-5-7.2-8.5c-3.9-8.2,0.6-16.6,9.7-17.6c6-0.7,11.7,0.9,17,3.4
				c10.1,4.8,20.1,10.1,28.1,18.2c11.1,11.2,9.9,34.8-2,45.2c-1.5,1.3-3,2.5-5.1,2.6c-1-1.7-1.9-3.4-3-5c-2.5-3.7-5.3-7.1-0.8-11.7
				c2.2-2.3,2.2-6.2-0.2-9c-2.4-2.8-5.2-2-7.8-0.2c-1.8,1.3-2.8,0.2-3.3-1.2c-1.2-3.7-4.2-5.1-7.5-6.3
				C1319.9,1016.9,1314.2,1013.4,1308.5,1009.6z"/>
			<path class="st7" d="M1348.9,1052.8c-8.6,5.9-25.7,5.2-35-1.5c-9.7-6.9-13.1-18.3-9.3-31.8c1-3.4,2.5-6.6,3.8-9.9
				c5.7,3.7,11.5,7.3,17.9,9.7c3.2,1.2,6.2,2.7,7.4,6.4c0.5,1.4,1.5,2.5,3.3,1.2c2.6-1.9,5.4-2.6,7.8,0.1c2.5,2.9,2.4,6.7,0.2,9
				c-4.5,4.6-1.7,8,0.8,11.7C1347,1049.5,1348,1051.2,1348.9,1052.8z"/>
			<path class="st6" d="M1321.4,1031.5c-0.2,1.9-1.6,2.3-3,1.4c-1.9-1.2-3.4-1.5-5.2,0c-0.8,0.7-1.9,0.4-2.6-0.5
				c-0.8-1-0.2-1.8,0.4-2.6c2-2.6,4.6-2.6,7.4-1.8C1319.9,1028.5,1321.4,1029.4,1321.4,1031.5z"/>
			<polygon class="st8" points="1538.5,1562.6 1435,1562.6 1371.2,1310.3 1381.7,1562.6 1280.7,1562.6 1287.9,1220 1288,1214.8 
				1417.9,1215 1418,1215.4 			"/>
			<path class="st7" d="M1555.1,1255.3c-0.8,1.2-2.1,1.3-3.3,0.7c-1.7-1-2.7-1-4,0.9c-1.9,2.8-4.1,0.7-5.8-0.8c-2-1.8-3.9-3.6-6.6-1
				c-1.3,1.2-2.9,0.9-4.3-0.1c-11-7.6-22.6-14.2-33-22.7c-1-0.8-1.9-1.6-2.9-2.4c-2.5-2.2-3.8-5.2-5.5-7.9c7.7-3.2,13.6-8.7,18.8-15
				c1.9,1.6,4.4,1.7,6.5,2.8c0.1,0,0.1,0.1,0.2,0.1c8,7,16,14,26.8,16.5c1.4,0.3,3.3,0.8,3,2.9c-0.2,1.7-1.8,2.5-3.4,2.7
				c-1.6,0.3-3.3,0.3-6,0.5c5.8,5.9,11.1,11.2,16.3,16.4c1,1,2,1.9,2.9,2.9C1555.7,1252.9,1555.9,1254.1,1555.1,1255.3z"/>
			<path class="st7" d="M1239.2,1075.3c-0.4,0.3-0.7,0.7-1.1,1c-2.4,2.9-4.3,6.2-6,9.5c-0.4,0.7-0.6,1.4-0.9,2.1
				c-0.9,2.5-1.3,5.2-2.4,7.6c-9.2,1-18.4,2-27.6,2.9c0.1-3.2,0.2-6.5,0.3-9.7c0.2-4.6,0.4-9.2,0.9-13.8
				c1.4-11.7,9.6-18.6,20.3-20.2c0.5-0.1,1.1,0.1,1.7,0.3c2.6,0.9,9.1-0.6,11.8-0.6c1.6,0,3,0.8,4.3,1.8c0.8,0.6-4.3,5.8-8.2,8.1
				c-3.2,0.7-4.1,3.5-5.5,5.9c-0.7,1.3-0.8,2.6,0.1,3.7c0.9,1.2,2.2,1.1,3.6,0.8c2.1-0.5,3.2-2.2,4.8-3.4c0.4-0.1,0.8-0.3,1.2-0.4
				c1.3-0.2,2.7-1.5,3.7,0.2C1241.3,1072.7,1240.4,1074.1,1239.2,1075.3z"/>
			<path class="st6" d="M1380.7,980.8c6.5,2.8,11.1,9.2,11.1,16.8c0,10.1-8.2,18.2-18.2,18.2s-18.2-8.2-18.2-18.2
				s8.2-18.2,18.2-18.2C1376.1,979.4,1378.5,979.9,1380.7,980.8L1380.7,980.8z"/>
			<path class="st6" d="M1521.4,1201.4l-6.3,8.5c-2.1-1.1-4.7-1.2-6.5-2.8c-5.2,6.3-11,11.8-18.8,15c1.7,2.8,3,5.8,5.5,7.9
				c0.9,0.8,1.9,1.6,2.9,2.4l-19.5,25.8l-24.2-25.9l-42.7-45.7l7,28.8l-0.7,0l-0.1-0.4l-129.8-0.2l7.9-73.3l-32,33l-3.9,4
				c-23.4,20.3-63.2,14.5-64.2-15.2l-4.6-74.3l10.4-0.3c-0.1,3.2-0.2,6.5-0.3,9.7c9.2-1,18.4-2,27.6-2.9c1.1-2.4,1.5-5.1,2.4-7.6
				l12.8-0.4l-2.5,14.4l-5.9,33.4l-0.4,2.4l1-1.1l42.9-50l5.3-6.2c9.2-9,21.6-14.1,34.5-14.1l28,0.4c0.2,0,0.5,0,0.7,0
				c22.9,0.6,44.4,11.5,58.3,29.8c8.4,11.1,18.1,22,28.4,32.4c20.9,21.1,43.6,39.9,60.7,53.1l0,0.1
				C1510.7,1194.1,1521.4,1201.4,1521.4,1201.4z"/>
			<path class="st6" d="M1201.5,1088.8l29.8-0.8c-0.9,2.5-1.3,5.2-2.4,7.6c-9.2,1-18.4,2-27.6,2.9
				C1201.3,1095.3,1201.4,1092,1201.5,1088.8z"/>
			<path class="st6" d="M1515.1,1209.8l-4.7,6.3l-12.2,16.2c-1-0.8-1.9-1.6-2.9-2.4c-2.5-2.2-3.8-5.2-5.5-7.9
				c7.7-3.2,13.6-8.7,18.8-15C1510.4,1208.6,1513,1208.7,1515.1,1209.8z"/>
		</g>
	</g>
</g>
</svg>
