<?xml version="1.0" encoding="utf-8"?>
<!-- Generator: Adobe Illustrator 25.3.1, SVG Export Plug-In . SVG Version: 6.00 Build 0)  -->
<svg version="1.1" id="Layer_1" xmlns="http://www.w3.org/2000/svg" xmlns:xlink="http://www.w3.org/1999/xlink" x="0px" y="0px"
	 viewBox="0 0 2176.2 1928.1" style="enable-background:new 0 0 2176.2 1928.1;" xml:space="preserve">
<style type="text/css">
	.st0{fill:none;stroke:url(#SVGID_1_);stroke-width:20.205;stroke-miterlimit:10;}
	.st1{fill:none;stroke:url(#SVGID_2_);stroke-width:20.205;stroke-miterlimit:10;}
	.st2{fill:none;stroke:url(#SVGID_3_);stroke-width:20.205;stroke-miterlimit:10;}
	.st3{fill:#2B2B2B;}
	.st4{fill:none;stroke:url(#SVGID_4_);stroke-width:20.205;stroke-miterlimit:10;}
	.st5{fill:#F2CEC7;}
	.st6{fill:#CDD7E1;}
</style>
<g>
	<g>
		<linearGradient id="SVGID_1_" gradientUnits="userSpaceOnUse" x1="1086.1493" y1="838.936" x2="1774.85" y2="838.936">
			<stop  offset="0" style="stop-color:#C9FB80"/>
			<stop  offset="0.4632" style="stop-color:#F6F3F5"/>
			<stop  offset="0.6538" style="stop-color:#CDD7E1"/>
		</linearGradient>
		<path class="st0" d="M1086.3,1523.8c244.7-3.3,458.6-134.4,577.9-329.6c63.8-104.4,100.6-227,100.6-358.3
			c0-349.1-260-637.4-596.8-682"/>
		<linearGradient id="SVGID_2_" gradientUnits="userSpaceOnUse" x1="378.7819" y1="907.4417" x2="911.743" y2="907.4417">
			<stop  offset="0" style="stop-color:#C9FB80"/>
			<stop  offset="0.4632" style="stop-color:#F6F3F5"/>
			<stop  offset="0.6538" style="stop-color:#CDD7E1"/>
		</linearGradient>
		<path class="st1" d="M634,309.5C484.1,435.7,388.9,624.7,388.9,835.9c0,322.2,221.4,592.6,520.4,667.4"/>
		
			<linearGradient id="SVGID_3_" gradientUnits="userSpaceOnUse" x1="3145.6685" y1="-85.6236" x2="3991.4385" y2="-85.6236" gradientTransform="matrix(-1.346900e-10 -1 1 -1.346900e-10 1189.735 4395.6001)">
			<stop  offset="0" style="stop-color:#C9FB80"/>
			<stop  offset="0.4632" style="stop-color:#F6F3F5"/>
			<stop  offset="0.6538" style="stop-color:#CDD7E1"/>
		</linearGradient>
		<path class="st2" d="M696.9,730.3c43.5-181.3,206.7-316.1,401.4-316.1c228,0,412.8,184.8,412.8,412.8s-184.8,412.8-412.8,412.8
			c-113.9,0-217-46.1-291.7-120.7"/>
		<circle class="st3" cx="807.3" cy="1118.8" r="25.9"/>
		<circle class="st3" cx="621.4" cy="317.6" r="25.9"/>
		<circle class="st3" cx="1090.8" cy="1523.8" r="25.9"/>
		<g>
			<path class="st3" d="M1199.1,893.4l14.7,134.7c1.7,15.8-10.6,29.5-26.5,29.5h-193c-15.8,0-28.2-13.8-26.5-29.5l14.7-134.7
				c-41.1-32.1-67.5-82.2-67.5-138.3c0-97.2,78.7-175.8,175.8-175.8c97,0,175.8,78.6,175.8,175.8
				C1266.6,811.2,1240.3,861.3,1199.1,893.4z"/>
		</g>
		
			<linearGradient id="SVGID_4_" gradientUnits="userSpaceOnUse" x1="-2650.8206" y1="-268.9278" x2="-1510.8927" y2="-268.9278" gradientTransform="matrix(-0.7071 0.7071 -0.7071 -0.7071 -584.7325 2117.1631)">
			<stop  offset="0" style="stop-color:#C9FB80"/>
			<stop  offset="0.4632" style="stop-color:#F6F3F5"/>
			<stop  offset="0.6538" style="stop-color:#CDD7E1"/>
		</linearGradient>
		<circle class="st4" cx="1076.8" cy="835.9" r="559.9"/>
	</g>
	<path class="st5" d="M969,1062c-0.6-1-1.1-2-1.8-3l0.5,0.1L969,1062z"/>
	<path class="st5" d="M926.4,1031.6c2.1,0.4,4.3,1.1,7.8,2.1"/>
	<g>
		<path class="st5" d="M551,1275c-1,7.1-66.4-20.7-71.7-30.4c-1.2-2.3,6.5-7,32.4-31c30.6-24.4,29.6-25.9,32.1-42.3
			c5.1-32.4,8.4-62,7-85c-0.4-7.1-2.7-13.2-7.3-18.6c-7.3-8.5-14.5-17.1-21.7-25.6c-1.5-1.7-3.7-3.5-1.7-5.8
			c1.8-2.2,4.4-1.6,6.7-0.5c3.2,1.5,5.4,4.4,8.2,6.5c1.1,0.8,2,2.2,3.6,1.6c1.9-0.7,1.5-2.5,1.4-4.1c-0.6-8.9-1.2-17.8-1.8-26.7
			c-0.5-7.4,0.7-8.4,7.4-6c1.3,0.5,1.9-0.1,2.8-0.7c4.2-3.1,7.5-1.6,10.3,2.1c2.4,3.2,4.6,6.5,7.9,9.1c3,2.4,3.2,6,3.5,9.5
			c0.9,13.9-0.5,28.2,2.8,41.8c4.3,18,27.6,89.1,21.3,132.2C592.4,1213.5,585.6,1247.9,551,1275z"/>
		<path class="st6" d="M648,1735.3v54.2h103.7v-1.9l0.2,0.1l0,0c0-19-14-35-32.8-37.6l-24.9-3.4v-11.4H648z"/>
		<path class="st6" d="M345.3,1735.3v54.2H241.6v-1.9l-0.2,0.1l0,0c0-19,14-35,32.8-37.6l24.9-3.4v-11.4H345.3z"/>
		<g>
			<path class="st3" d="M484.8,1156.2c2.6-3.6,6.1-6.5,7.7-10.8c3.9-10.2-2.4-19.7-13.2-20.1c-7.3-0.3-13.8,2.2-19.9,5.7
				c-11.6,6.7-23,13.9-31.8,24.4c-12.1,14.5-8.5,42.5,6.8,53.7c1.9,1.4,3.8,2.7,6.3,2.6c1-2.1,1.9-4.2,3.1-6.2
				c2.6-4.7,5.6-8.9-0.2-14c-2.8-2.5-3.3-7.2-0.6-10.8c2.6-3.5,6-2.9,9.3-1c2.3,1.4,3.4,0,3.8-1.8c1.1-4.5,4.6-6.5,8.3-8.3
				C471.8,1166,478.3,1161.2,484.8,1156.2z"/>
			<path class="st5" d="M440.7,1211.6c10.8,6.2,31.2,3.7,41.6-5.1c10.9-9.2,13.9-23.1,8-38.8c-1.5-4-3.7-7.7-5.5-11.5
				c-6.4,5-13,9.8-20.4,13.3c-3.7,1.8-7.2,3.8-8.3,8.3c-0.4,1.8-1.5,3.2-3.8,1.8c-3.3-2-6.7-2.6-9.3,0.9c-2.7,3.7-2.3,8.3,0.6,10.8
				c5.8,5.1,2.8,9.4,0.2,14C442.6,1207.4,441.6,1209.5,440.7,1211.6z"/>
			<path class="st3" d="M484.6,1180c-0.5-2.2-2.1-2.6-3.8-1.4c-2.1,1.6-3.9,2.1-6.2,0.5c-1.1-0.7-2.3-0.3-3,0.8
				c-0.9,1.2-0.1,2.1,0.7,3c2.6,2.9,5.8,2.7,9,1.4C483.1,1183.6,484.7,1182.5,484.6,1180z"/>
		</g>
		<path class="st3" d="M704.8,1740.4h-70.5l-124.1-235l-156.4,235h-66.1c0,0,85.7-273.4,161.9-324.4h132.9l14.2,19.7
			c32.2,44.6,57.7,93.3,75.9,144.6C690.9,1631.5,701.8,1685.5,704.8,1740.4z"/>
		<path class="st6" d="M582.4,1415.9l-131.7,0.6c-78.2-79.5-21-189.7-21-189.7c15.6,2,30.9,6.3,45,12.6l39.8-37.7l52.7,70.4
			l-28.9,17.3c2.8,3.5,5.4,7.2,7.9,11l3.7,5.6C549.9,1306,574.5,1372.6,582.4,1415.9z"/>
	</g>
</g>
</svg>
