<svg width="445" height="533" viewBox="0 0 445 533" fill="none" xmlns="http://www.w3.org/2000/svg">
<path d="M268.616 443.293C268.616 367.082 316.738 302.107 384.228 277.044" stroke="url(#paint0_linear_108_102)" stroke-width="6.57224" stroke-miterlimit="10"/>
<path d="M203.169 443.293C203.169 309.728 311.435 201.501 444.961 201.501" stroke="url(#paint1_linear_108_102)" stroke-width="6.57224" stroke-miterlimit="10"/>
<path d="M139.529 443.293C139.529 310.789 224.107 198.083 342.234 156.168" stroke="url(#paint2_linear_108_102)" stroke-width="6.57224" stroke-miterlimit="10"/>
<path d="M81.3892 369.282C115.33 199.498 265.237 71.5896 445 71.5896" stroke="url(#paint3_linear_108_102)" stroke-width="6.57224" stroke-miterlimit="10"/>
<path d="M218.922 64.9506C284.84 25.5882 361.915 3 444.254 3" stroke="url(#paint4_linear_108_102)" stroke-width="5.71338" stroke-miterlimit="10"/>
<path d="M4 443.293C4 318.017 56.326 204.997 140.276 124.819" stroke="url(#paint5_linear_108_102)" stroke-width="6.57224" stroke-miterlimit="10"/>
<path d="M81.0749 378.396C85.9565 378.396 89.9138 374.439 89.9138 369.557C89.9138 364.676 85.9565 360.718 81.0749 360.718C76.1933 360.718 72.2361 364.676 72.2361 369.557C72.2361 374.439 76.1933 378.396 81.0749 378.396Z" fill="#2B2B2B"/>
<path d="M141.651 132.362C146.532 132.362 150.489 128.404 150.489 123.523C150.489 118.641 146.532 114.684 141.651 114.684C136.769 114.684 132.812 118.641 132.812 123.523C132.812 128.404 136.769 132.362 141.651 132.362Z" fill="#2B2B2B"/>
<path d="M345.455 162.374C350.336 162.374 354.294 158.417 354.294 153.536C354.294 148.654 350.336 144.697 345.455 144.697C340.573 144.697 336.616 148.654 336.616 153.536C336.616 158.417 340.573 162.374 345.455 162.374Z" fill="#2B2B2B"/>
<path d="M330.357 284.179C330.357 292.207 323.849 298.714 315.821 298.714C307.793 298.714 301.286 292.207 301.286 284.179C301.286 276.151 307.793 269.643 315.821 269.643C323.849 269.643 330.357 276.151 330.357 284.179Z" stroke="#2B2B2B" stroke-width="5.28574"/>
<path d="M313.179 298.715L305.25 330.429" stroke="#2B2B2B" stroke-width="5.28574" stroke-linecap="round"/>
<path d="M312.132 318.81C312.137 319.015 312.2 319.212 312.204 319.417C312.603 320.916 313.255 322.349 313.956 323.716C314.095 324.019 314.282 324.256 314.445 324.526C315.068 325.434 316.22 329.255 316.762 330.205C314.891 333.478 312.68 333.722 310.775 336.971C309.725 336.155 308.641 335.314 307.59 334.499C306.093 333.307 304.597 332.116 303.172 330.826C299.579 327.502 299.228 323.115 301.257 319.201C301.344 319.012 301.555 318.864 301.766 318.715C302.692 318.079 303.747 315.573 304.395 314.684C304.778 314.157 305.383 313.892 306.03 313.709C306.424 313.592 306.947 316.543 306.784 318.39C306.251 319.615 306.976 320.596 307.446 321.644C307.714 322.192 308.127 322.544 308.712 322.516C309.331 322.514 310.004 322.741 310.239 322.206C310.575 321.393 309.873 319.935 309.854 319.115C309.854 318.911 309.945 318.778 310.007 318.622C310.252 318.145 310.689 315.634 311.5 315.721C312.301 315.75 312.017 318.122 312.132 318.81Z" fill="#F2CEC7"/>
<path d="M330.016 532.703H351.112L354.687 515.182H340.387L330.763 529.089L330.016 532.703Z" fill="#2B2B2B"/>
<path d="M362.779 515.182L363.761 532.742H355.236L354.215 515.182H362.779Z" fill="#2B2B2B"/>
<path d="M433.843 532.703H412.787L409.212 515.182H423.472L433.097 529.089L433.843 532.703Z" fill="#2B2B2B"/>
<path d="M401.12 515.182L400.099 532.742H408.662L409.644 515.182H401.12Z" fill="#2B2B2B"/>
<path d="M344.473 298.061C343.53 296.961 342.312 296.096 341.644 294.721C340.112 291.5 341.88 288.2 345.455 287.808C347.812 287.533 350.051 288.161 352.133 289.143C356.101 291.029 360.029 293.111 363.172 296.293C367.532 300.693 367.061 309.964 362.386 314.049C361.797 314.56 361.208 315.031 360.383 315.07C359.99 314.403 359.636 313.735 359.204 313.106C358.222 311.653 357.122 310.317 358.89 308.51C359.754 307.607 359.754 306.074 358.811 304.975C357.868 303.875 356.769 304.189 355.747 304.896C355.04 305.407 354.647 304.975 354.451 304.425C353.979 302.971 352.801 302.421 351.505 301.95C348.951 300.928 346.712 299.553 344.473 298.061Z" fill="#2B2B2B"/>
<path d="M360.343 315.031C356.965 317.349 350.247 317.074 346.594 314.442C342.783 311.732 341.448 307.253 342.941 301.95C343.333 300.614 343.923 299.357 344.433 298.061C346.673 299.514 348.951 300.929 351.465 301.871C352.722 302.343 353.901 302.932 354.372 304.385C354.569 304.935 354.961 305.368 355.669 304.857C356.69 304.111 357.79 303.836 358.733 304.896C359.715 306.035 359.675 307.528 358.811 308.432C357.043 310.239 358.143 311.574 359.126 313.028C359.597 313.735 359.99 314.403 360.343 315.031Z" fill="#F2CEC7"/>
<path d="M349.54 306.664C349.462 307.41 348.912 307.567 348.362 307.214C347.615 306.742 347.026 306.625 346.319 307.214C346.005 307.489 345.573 307.371 345.298 307.017C344.983 306.625 345.219 306.31 345.455 305.996C346.24 304.975 347.262 304.975 348.362 305.289C348.951 305.485 349.54 305.839 349.54 306.664Z" fill="#2B2B2B"/>
<path d="M434.825 515.3H394.167L369.104 416.187L373.228 515.3H333.552L336.38 380.714L336.42 378.671L387.449 378.75L387.488 378.907L434.825 515.3Z" fill="#CDD7E1"/>
<path d="M441.346 394.581C441.032 395.052 440.522 395.092 440.05 394.856C439.382 394.463 438.989 394.463 438.479 395.21C437.732 396.31 436.868 395.485 436.2 394.895C435.415 394.188 434.668 393.481 433.608 394.502C433.097 394.974 432.468 394.856 431.918 394.463C427.597 391.478 423.04 388.885 418.955 385.546C418.562 385.231 418.208 384.917 417.815 384.603C416.833 383.739 416.323 382.56 415.655 381.5C418.68 380.242 420.997 378.082 423.04 375.607C423.787 376.235 424.769 376.275 425.594 376.707C425.633 376.707 425.633 376.746 425.672 376.746C428.815 379.496 431.958 382.246 436.2 383.228C436.75 383.346 437.497 383.542 437.379 384.367C437.3 385.035 436.672 385.349 436.043 385.428C435.415 385.546 434.747 385.546 433.686 385.624C435.965 387.942 438.047 390.024 440.089 392.067C440.482 392.46 440.875 392.813 441.229 393.206C441.582 393.638 441.661 394.11 441.346 394.581Z" fill="#F2CEC7"/>
<path d="M372.836 286.747C375.389 287.847 377.196 290.361 377.196 293.347C377.196 297.314 373.975 300.496 370.046 300.496C366.118 300.496 362.897 297.275 362.897 293.347C362.897 289.418 366.118 286.197 370.046 286.197C371.028 286.197 371.971 286.393 372.836 286.747Z" fill="#2B2B2B"/>
<path d="M428.108 373.407L425.633 376.746C424.808 376.314 423.787 376.275 423.08 375.646C421.037 378.121 418.758 380.282 415.694 381.539C416.362 382.639 416.873 383.817 417.855 384.642C418.208 384.956 418.601 385.271 418.994 385.585L411.334 395.72L401.827 385.546L385.053 367.593L387.803 378.907H387.528L387.488 378.75L336.498 378.671L339.601 349.876L327.031 362.84L325.499 364.411C316.306 372.386 300.671 370.107 300.278 358.44L298.5 329L302.557 329.134C302.518 330.391 302.478 331.688 302.439 332.945C306.053 332.552 309.667 332.159 313.281 331.805C313.713 330.863 313.871 329.802 314.224 328.82L319.5 328.5L318.27 334.32L315.953 347.44L315.795 348.383L316.188 347.951L333.041 328.309L335.123 325.874C338.737 322.338 343.608 320.335 348.676 320.335L359.675 320.492C359.754 320.492 359.872 320.492 359.95 320.492C368.946 320.727 377.392 325.009 382.853 332.198C386.153 336.559 389.963 340.841 394.009 344.926C402.22 353.215 411.137 360.6 417.855 365.786V365.825C423.904 370.539 428.108 373.407 428.108 373.407Z" fill="#2B2B2B"/>
<path d="M298.5 329L319.5 328.5C319.146 329.482 317.432 331.057 317 332C313.386 332.393 305.975 332.63 302.361 332.984C302.361 331.727 298.461 330.257 298.5 329Z" fill="#2B2B2B"/>
<path d="M425.633 376.707L423.787 379.182L418.994 385.546C418.601 385.231 418.248 384.917 417.855 384.603C416.873 383.739 416.362 382.56 415.694 381.5C418.719 380.242 421.037 378.082 423.08 375.607C423.787 376.235 424.808 376.275 425.633 376.707Z" fill="#2B2B2B"/>
<defs>
<linearGradient id="paint0_linear_108_102" x1="247.85" y1="426.507" x2="391.934" y2="282.423" gradientUnits="userSpaceOnUse">
<stop stop-color="#C9FB80"/>
<stop offset="0.4632" stop-color="#F6F3F5"/>
<stop offset="0.6538" stop-color="#CDD7E1"/>
</linearGradient>
<linearGradient id="paint1_linear_108_102" x1="175.741" y1="419.824" x2="421.52" y2="174.044" gradientUnits="userSpaceOnUse">
<stop stop-color="#C9FB80"/>
<stop offset="0.4632" stop-color="#F6F3F5"/>
<stop offset="0.6538" stop-color="#CDD7E1"/>
</linearGradient>
<linearGradient id="paint2_linear_108_102" x1="105.583" y1="413.323" x2="353.688" y2="165.218" gradientUnits="userSpaceOnUse">
<stop stop-color="#C9FB80"/>
<stop offset="0.4632" stop-color="#F6F3F5"/>
<stop offset="0.6538" stop-color="#CDD7E1"/>
</linearGradient>
<linearGradient id="paint3_linear_108_102" x1="73.9849" y1="364.979" x2="408.163" y2="30.8015" gradientUnits="userSpaceOnUse">
<stop stop-color="#C9FB80"/>
<stop offset="0.4632" stop-color="#F6F3F5"/>
<stop offset="0.6538" stop-color="#CDD7E1"/>
</linearGradient>
<linearGradient id="paint4_linear_108_102" x1="258.86" y1="106.089" x2="404.818" y2="-39.8686" gradientUnits="userSpaceOnUse">
<stop stop-color="#C9FB80"/>
<stop offset="0.4632" stop-color="#F6F3F5"/>
<stop offset="0.6538" stop-color="#CDD7E1"/>
</linearGradient>
<linearGradient id="paint5_linear_108_102" x1="-44.0005" y1="399.272" x2="185.417" y2="169.854" gradientUnits="userSpaceOnUse">
<stop stop-color="#C9FB80"/>
<stop offset="0.4632" stop-color="#F6F3F5"/>
<stop offset="0.6538" stop-color="#CDD7E1"/>
</linearGradient>
</defs>
</svg>
