<svg width="500" height="538" viewBox="0 0 500 538" fill="none" xmlns="http://www.w3.org/2000/svg">
<path d="M224.911 451.253C145.24 450.175 75.5967 407.373 36.7542 343.643C15.9817 309.558 4.00003 269.531 4.00003 226.663C4.00003 112.687 88.6528 18.5613 198.311 4" stroke="url(#paint0_linear_213_200)" stroke-width="6.57224" stroke-miterlimit="10"/>
<path d="M372.174 54.8011C420.98 96.0036 451.976 157.709 451.976 226.663C451.976 331.857 379.891 420.139 282.54 444.56" stroke="url(#paint1_linear_213_200)" stroke-width="6.57224" stroke-miterlimit="10"/>
<path d="M351.695 192.186C337.532 132.995 284.396 88.9843 221.004 88.9843C146.77 88.9843 86.6015 149.319 86.6015 223.758C86.6015 298.196 146.77 358.531 221.004 358.531C258.088 358.531 291.657 343.48 315.978 319.124" stroke="url(#paint2_linear_213_200)" stroke-width="6.57224" stroke-miterlimit="10"/>
<path d="M315.75 327.482C311.093 327.482 307.317 323.696 307.317 319.026C307.317 314.356 311.093 310.57 315.75 310.57C320.407 310.57 324.183 314.356 324.183 319.026C324.183 323.696 320.407 327.482 315.75 327.482Z" fill="#2B2B2B"/>
<path d="M376.277 65.9017C371.619 65.9017 367.844 62.1158 367.844 57.4457C367.844 52.7756 371.619 48.9897 376.277 48.9897C380.934 48.9897 384.709 52.7756 384.709 57.4457C384.709 62.1158 380.934 65.9017 376.277 65.9017Z" fill="#2B2B2B"/>
<path d="M223.446 459.709C218.789 459.709 215.013 455.923 215.013 451.253C215.013 446.583 218.789 442.797 223.446 442.797C228.103 442.797 231.879 446.583 231.879 451.253C231.879 455.923 228.103 459.709 223.446 459.709Z" fill="#2B2B2B"/>
<path d="M228.004 409.463C127.325 409.463 45.7077 327.621 45.7077 226.663C45.7077 125.706 127.325 43.8639 228.004 43.8639C328.684 43.8639 410.301 125.706 410.301 226.663C410.301 327.621 328.684 409.463 228.004 409.463Z" stroke="url(#paint3_linear_213_200)" stroke-width="6.57224" stroke-miterlimit="10"/>
<path d="M263.102 300.482C263.298 300.155 263.461 299.829 263.688 299.502L263.526 299.535L263.102 300.482Z" fill="#F2CEC7"/>
<path d="M276.973 290.557C276.289 290.687 275.573 290.916 274.433 291.242Z" fill="#F2CEC7"/>
<path d="M399.198 370.023C399.524 372.341 420.817 363.265 422.543 360.098C422.933 359.347 420.426 357.813 411.994 349.977C402.031 342.011 402.356 341.521 401.542 336.167C399.882 325.588 398.807 315.924 399.263 308.415C399.393 306.097 400.142 304.106 401.64 302.343C404.017 299.567 406.361 296.76 408.705 293.985C409.194 293.43 409.91 292.842 409.259 292.091C408.673 291.373 407.826 291.569 407.077 291.928C406.035 292.417 405.319 293.364 404.407 294.05C404.049 294.311 403.756 294.768 403.235 294.572C402.617 294.344 402.747 293.756 402.78 293.234C402.975 290.328 403.17 287.422 403.366 284.517C403.528 282.101 403.138 281.774 400.956 282.558C400.533 282.721 400.338 282.525 400.045 282.329C398.677 281.317 397.603 281.807 396.691 283.015C395.91 284.059 395.193 285.137 394.119 285.986C393.142 286.769 393.077 287.945 392.979 289.087C392.686 293.625 393.142 298.294 392.068 302.734C390.668 308.611 383.081 331.824 385.133 345.896C385.719 349.944 387.933 361.175 399.198 370.023Z" fill="#F2CEC7"/>
<path d="M367.616 520.305V538H333.853V537.38L333.788 537.412C333.788 531.209 338.346 525.985 344.467 525.137L352.574 524.026V520.305H367.616V520.305Z" fill="#CDD7E1"/>
<path d="M466.171 520.305V538H499.935V537.38L500 537.412C500 531.209 495.442 525.985 489.321 525.137L481.214 524.026V520.305H466.171V520.305Z" fill="#CDD7E1"/>
<path d="M420.752 331.237C419.905 330.061 418.766 329.114 418.245 327.711C416.975 324.38 419.026 321.279 422.543 321.148C424.92 321.05 427.036 321.866 429.022 323.009C432.799 325.197 436.51 327.547 439.376 330.975C443.315 335.709 442.143 344.851 437.162 348.508C436.543 348.965 435.924 349.389 435.11 349.357C434.785 348.671 434.492 347.985 434.101 347.332C433.255 345.798 432.278 344.427 434.166 342.762C435.078 341.945 435.241 340.411 434.362 339.235C433.515 338.093 432.408 338.289 431.334 338.909C430.585 339.366 430.227 338.909 430.096 338.321C429.738 336.852 428.599 336.199 427.394 335.612C424.985 334.436 422.868 332.869 420.752 331.237Z" fill="#2B2B2B"/>
<path d="M435.11 349.324C431.594 351.348 424.952 350.532 421.566 347.659C418.017 344.655 417.04 340.117 418.961 334.991C419.45 333.685 420.166 332.477 420.752 331.237C422.836 332.869 424.985 334.436 427.394 335.579C428.599 336.167 429.738 336.82 430.096 338.289C430.227 338.876 430.585 339.333 431.334 338.876C432.408 338.223 433.515 338.027 434.362 339.17C435.241 340.378 435.11 341.88 434.166 342.696C432.278 344.361 433.255 345.765 434.101 347.267C434.492 347.953 434.817 348.638 435.11 349.324Z" fill="#F2CEC7"/>
<path d="M420.817 339.007C420.98 338.289 421.501 338.158 422.054 338.55C422.738 339.072 423.324 339.235 424.073 338.713C424.431 338.485 424.822 338.615 425.05 338.974C425.343 339.366 425.082 339.66 424.822 339.954C423.975 340.9 422.933 340.835 421.892 340.411C421.306 340.182 420.785 339.823 420.817 339.007Z" fill="#2B2B2B"/>
<path d="M349.123 521.97H372.077L412.482 445.245L463.404 521.97H484.925C484.925 521.97 457.022 432.708 432.213 416.058H388.942L384.319 422.489C373.835 437.051 365.532 452.951 359.607 469.699C353.648 486.415 350.1 504.046 349.123 521.97Z" fill="#2B2B2B"/>
<path d="M388.975 416.025L431.855 416.221C457.315 390.265 438.692 354.286 438.692 354.286C433.613 354.939 428.631 356.343 424.04 358.4L411.082 346.092L393.924 369.076L403.333 374.724C402.421 375.867 401.575 377.075 400.761 378.316L399.556 380.144C399.556 380.144 391.547 401.888 388.975 416.025Z" fill="#CDD7E1"/>
<path d="M242.397 165.801C241.659 165.125 240.695 164.75 239.694 164.75H194.25C191.134 164.75 188.145 165.988 185.941 168.191C183.738 170.395 182.5 173.384 182.5 176.5V270.5C182.5 273.616 183.738 276.605 185.941 278.809C188.145 281.012 191.134 282.25 194.25 282.25H264.75C267.866 282.25 270.855 281.012 273.059 278.809C275.262 276.605 276.5 273.616 276.5 270.5V198.822C276.5 197.701 276.029 196.631 275.203 195.873L242.397 165.801Z" fill="#9FACBB"/>
<path d="M252 224H205" stroke="white" stroke-width="8" stroke-linecap="round" stroke-linejoin="round"/>
<path d="M246.125 252H205" stroke="white" stroke-width="8" stroke-linecap="round" stroke-linejoin="round"/>
<path d="M216.75 196H210.875H205" stroke="white" stroke-width="8" stroke-linecap="round" stroke-linejoin="round"/>
<path d="M243 178V190C243 192.761 245.239 195 248 195H262" fill="white"/>
<defs>
<linearGradient id="paint0_linear_213_200" x1="224.96" y1="227.654" x2="0.727876" y2="227.654" gradientUnits="userSpaceOnUse">
<stop stop-color="#C9FB80"/>
<stop offset="0.4632" stop-color="#F6F3F5"/>
<stop offset="0.6538" stop-color="#CDD7E1"/>
</linearGradient>
<linearGradient id="paint1_linear_213_200" x1="455.27" y1="250.021" x2="281.745" y2="250.021" gradientUnits="userSpaceOnUse">
<stop stop-color="#C9FB80"/>
<stop offset="0.4632" stop-color="#F6F3F5"/>
<stop offset="0.6538" stop-color="#CDD7E1"/>
</linearGradient>
<linearGradient id="paint2_linear_213_200" x1="219.112" y1="361.839" x2="219.112" y2="85.7069" gradientUnits="userSpaceOnUse">
<stop stop-color="#C9FB80"/>
<stop offset="0.4632" stop-color="#F6F3F5"/>
<stop offset="0.6538" stop-color="#CDD7E1"/>
</linearGradient>
<linearGradient id="paint3_linear_213_200" x1="96.7853" y1="95.0982" x2="359.946" y2="357.535" gradientUnits="userSpaceOnUse">
<stop stop-color="#C9FB80"/>
<stop offset="0.4632" stop-color="#F6F3F5"/>
<stop offset="0.6538" stop-color="#CDD7E1"/>
</linearGradient>
</defs>
</svg>
